<svg xmlns="http://www.w3.org/2000/svg" viewBox="0 0 902.92916 300.00012"><defs><style>.cls-1{fill:#04111a;}.cls-2{fill:#fea605;}</style></defs><title>Datový zdroj 2</title><g id="Vrstva_2" data-name="Vrstva 2"><g id="Vrstva_1-2" data-name="Vrstva 1"><path class="cls-1" d="M150,0A149.51433,149.51433,0,0,0,91.33911,11.90771C118.07959,32.94165,118.57959,69.84,118.57446,72.77856l.00049.02149V122.3501h62.8501v-49.55a27.65,27.65,0,0,1,55.30005,0v154.4a27.656,27.656,0,0,1-23.52881,27.34278c3.87671,7.62561,9.96753,14.92285,19.561,18.95544l1.48438.62409A150.008,150.008,0,0,0,150,0Z"/><path class="cls-2" d="M181.42578,227.2215l-.00073-.02143V177.65015H118.575v49.54992a27.6499,27.6499,0,0,1-55.2998,0v-154.4A27.65584,27.65584,0,0,1,86.804,45.45728c-3.87671-7.62549-9.96753-14.92261-19.561-18.95508l-1.48486-.62415A150.03133,150.03133,0,0,0,208.66089,288.09253C181.9209,267.05859,181.42041,230.16113,181.42578,227.2215Z"/><path class="cls-1" d="M333.46525,51.29734V248.74205l-.6.00111V51.257Z"/><path class="cls-1" d="M393.17916,126.51069h53.27832V73.413h18.35938V199.22749H446.45748V144.50971H393.17916v54.71778H375.00045V73.413h18.17871Z"/><path class="cls-1" d="M537.53561,91.41206H514.13619V181.0478h23.39942v18.17969H472.55807V181.0478h23.39941V91.41206H472.55807V73.413h64.97754Z"/><path class="cls-1" d="M571.37545,135.33h21.23926c15.2998,0,22.85937-10.9795,22.85937-21.959,0-10.7998-7.55957-21.7793-22.85937-21.7793H564.71627V199.22749h-18V73.23237h45.89844c27.3584,0,41.03808,20.15918,41.03808,40.13867,0,17.81934-10.97949,34.73828-32.57812,38.51856L640.853,199.22749h-23.5791l-45.89844-55.25782Z"/><path class="cls-1" d="M747.771,90.69233A66.43613,66.43613,0,0,0,736.81661,81.862L726.478,97.03169a47.20377,47.20377,0,0,1,8.333,6.61962,46.25905,46.25905,0,0,1-32.57813,78.83692,45.18026,45.18026,0,0,1-32.21875-13.67969,46.47054,46.47054,0,0,1,7.26856-71.18262L666.90939,82.40571a64.13328,64.13328,0,0,0-10.03492,8.28662,64.74843,64.74843,0,0,0,0,91.07617,63.67044,63.67044,0,0,0,90.89649,0,64.75082,64.75082,0,0,0,0-91.07617Z"/><path class="cls-1" d="M682.48409,89.97163a44.56228,44.56228,0,0,1,19.74878-4.63428,45.3418,45.3418,0,0,1,18.93653,4.197l10.44873-15.331a63.23174,63.23174,0,0,0-59.56665.46069Z"/><path class="cls-1" d="M884.21041,90.69233A66.43647,66.43647,0,0,0,873.25607,81.862L862.91744,97.03169a47.2034,47.2034,0,0,1,8.333,6.61962,46.25905,46.25905,0,0,1-32.57812,78.83692,45.18022,45.18022,0,0,1-32.21875-13.67969,46.47057,46.47057,0,0,1,7.26855-71.18262L803.34884,82.40571a64.13366,64.13366,0,0,0-10.03491,8.28662,64.74841,64.74841,0,0,0,0,91.07617,63.67043,63.67043,0,0,0,90.89648,0,64.75082,64.75082,0,0,0,0-91.07617Z"/><path class="cls-1" d="M818.92355,89.97163a44.56225,44.56225,0,0,1,19.74878-4.63428,45.34175,45.34175,0,0,1,18.93652,4.197l10.44873-15.331a63.23174,63.23174,0,0,0-59.56665.46069Z"/></g></g></svg>