<?xml version="1.0" encoding="utf-8"?>
<!-- Generator: Adobe Illustrator 16.0.0, SVG Export Plug-In . SVG Version: 6.00 Build 0)  -->
<!DOCTYPE svg PUBLIC "-//W3C//DTD SVG 1.1//EN" "http://www.w3.org/Graphics/SVG/1.1/DTD/svg11.dtd">
<svg version="1.1" id="Layer_1" xmlns="http://www.w3.org/2000/svg" xmlns:xlink="http://www.w3.org/1999/xlink" x="0px" y="0px"
	 width="32px" height="32px" viewBox="0 0 32 32" enable-background="new 0 0 32 32" xml:space="preserve">
<g id="network_x2C__globe_x2C__user_x2C__man">
	<g id="globe_sphere">
		<g>
			<g id="international_finance_x2C__globe_x2C__money_flow_x2C__money_turnover_7_">
				<g id="global_5_">
					<g>
						<circle fill="#80D8FF" cx="17.5" cy="14.501" r="13"/>
						<path fill="#FFFFFF" d="M5.928,15.427c0-6.901,5.595-12.498,12.498-12.498c4.997,0,9.297,2.94,11.297,7.179
							C27.92,5.093,23.135,1.5,17.5,1.5c-7.179,0-13,5.82-13,13.001c0,5.636,3.592,10.42,8.607,12.224
							C8.869,24.725,5.928,20.425,5.928,15.427z"/>
						<path fill="#73C2E6" d="M26.458,5.095c0.603,1.578,0.947,3.283,0.947,5.073c0,7.862-6.376,14.238-14.239,14.238
							c-1.79,0-3.495-0.345-5.072-0.947c2.367,2.485,5.701,4.043,9.405,4.043c7.179,0,13-5.82,13-13.001
							C30.5,10.798,28.943,7.463,26.458,5.095z"/>
					</g>
				</g>
			</g>
			<path fill="#455A64" d="M17.5,7.629c-0.276,0-0.5-0.224-0.5-0.5s0.224-0.5,0.5-0.5c3.061,0,6.104-0.438,9.047-1.304
				c0.27-0.079,0.543,0.074,0.621,0.338c0.078,0.265-0.074,0.543-0.338,0.621C23.795,7.177,20.656,7.629,17.5,7.629z"/>
			<path fill="#455A64" d="M26.688,23.629c-0.046,0-0.094-0.006-0.141-0.021c-2.939-0.865-5.983-1.304-9.047-1.304
				c-0.276,0-0.5-0.224-0.5-0.5s0.224-0.5,0.5-0.5c3.16,0,6.298,0.452,9.33,1.345c0.265,0.078,0.417,0.356,0.338,0.621
				C27.104,23.488,26.905,23.629,26.688,23.629z"/>
			<path fill="#455A64" d="M21.22,24.778c-0.114,0-0.229-0.039-0.322-0.118c-0.211-0.178-0.237-0.494-0.059-0.705
				c2.235-2.646,3.466-6.003,3.466-9.455c0-4.854-2.423-9.405-6.48-12.174c-0.228-0.156-0.287-0.467-0.131-0.695
				c0.155-0.228,0.467-0.286,0.695-0.131c4.331,2.955,6.917,7.815,6.917,13c0,3.687-1.315,7.274-3.702,10.1
				C21.503,24.718,21.362,24.778,21.22,24.778z"/>
			<g>
				<path fill="#455A64" d="M17.5,22.95c-0.276,0-0.5-0.224-0.5-0.5V2.052c0-0.276,0.224-0.5,0.5-0.5s0.5,0.224,0.5,0.5V22.45
					C18,22.727,17.776,22.95,17.5,22.95z"/>
			</g>
			<g>
				<path fill="#455A64" d="M30.412,15.001H17.5c-0.276,0-0.5-0.224-0.5-0.5s0.224-0.5,0.5-0.5h12.912c0.276,0,0.5,0.224,0.5,0.5
					S30.688,15.001,30.412,15.001z"/>
			</g>
			<path fill="#455A64" d="M22.56,26.98c-0.195,0-0.38-0.114-0.46-0.305c-0.107-0.254,0.011-0.548,0.266-0.655
				C27.003,24.058,30,19.537,30,14.501C30,7.608,24.393,2,17.5,2S5,7.608,5,14.501c0,0.276-0.224,0.5-0.5,0.5S4,14.777,4,14.501
				C4,7.057,10.056,1,17.5,1S31,7.057,31,14.501c0,5.438-3.236,10.321-8.245,12.44C22.691,26.968,22.625,26.98,22.56,26.98z"/>
		</g>
	</g>
	<g id="profile_x2C__person">
		<g>
			<g>
				<path fill="#FFFFFF" d="M20.5,30.346V28.04c0-1.162-0.927-2.47-2.024-2.854L11,22.569l-7.476,2.617
					C2.427,25.57,1.5,26.878,1.5,28.04v2.306c0.213,0.229,0.444,0.441,0.674,0.655h17.652C20.056,30.787,20.287,30.575,20.5,30.346z
					"/>
			</g>
			<g>
				<path fill="#1DE9B6" d="M20.5,30.346V28.04c0-1.162-0.927-2.47-2.024-2.854l-6.726-2.354l-6.726,2.354
					C3.927,25.57,3,26.878,3,28.04v2.961h16.826C20.056,30.787,20.287,30.575,20.5,30.346z"/>
			</g>
			<path fill="#65F0CD" d="M15.715,31.001c-0.508-6.214-2.916-6.258-4.524-7.973l-6.166,2.158C3.927,25.57,3,26.878,3,28.04v2.961
				H15.715z"/>
			<g id="team_3_">
				<g>
					<g>
						<polygon fill="#E6CAA0" points="8.54,23.751 8.941,20.54 13.059,20.54 13.46,23.751 11,24.481 						"/>
					</g>
				</g>
				<path fill="#455A64" d="M20.5,31.001c-0.276,0-0.5-0.224-0.5-0.5V28.04c0-0.954-0.79-2.067-1.689-2.381l-5.058-1.771
					c-0.179-0.063-0.308-0.221-0.331-0.41l-0.359-2.876c-0.034-0.274,0.16-0.524,0.434-0.558c0.278-0.029,0.523,0.161,0.558,0.434
					l0.321,2.568l4.765,1.668C19.941,25.169,21,26.661,21,28.04v2.461C21,30.777,20.776,31.001,20.5,31.001z"/>
				<path fill="#455A64" d="M1.5,31.001c-0.276,0-0.5-0.224-0.5-0.5V28.04c0-1.379,1.059-2.871,2.359-3.326l4.764-1.667l0.019-0.148
					c0.034-0.274,0.278-0.477,0.557-0.435c0.274,0.034,0.469,0.283,0.435,0.557l-0.056,0.456c-0.023,0.189-0.151,0.348-0.331,0.411
					l-5.058,1.771C2.79,25.973,2,27.086,2,28.04v2.461C2,30.777,1.776,31.001,1.5,31.001z"/>
				<g>
					<g>
						<path fill="#E6CAA0" d="M14.5,15.54v2c0,1.801-1.615,4-3.5,4s-3.5-2.199-3.5-4v-2c0,0-0.438-3.5,3.5-3.5
							S14.5,15.54,14.5,15.54z"/>
					</g>
					<g>
						<path fill="#FFE0B2" d="M10.603,21.483c1.054-1.105,1.593-2.575,1.599-5.412c0.002-1.174-0.123-2.363-1.227-3.469
							c-0.202-0.203-0.436-0.368-0.686-0.513C7.119,12.544,7.5,15.54,7.5,15.54v2C7.5,19.212,8.896,21.203,10.603,21.483z"/>
					</g>
					<g>
						<path fill="#455A64" d="M11,22.04c-2.779,0-4.192-1.844-4.201-6.469c-0.002-1.174,0.123-2.363,1.227-3.469
							C8.729,11.397,9.729,11.04,11,11.04s2.271,0.357,2.975,1.063c1.104,1.105,1.229,2.295,1.227,3.469
							C15.192,20.196,13.779,22.04,11,22.04z M11,12.04c-1.009,0-1.75,0.252-2.267,0.769c-0.632,0.633-0.938,1.2-0.935,2.761
							C7.807,19.587,8.854,21.04,11,21.04s3.193-1.453,3.201-5.471c0.003-1.561-0.303-2.128-0.935-2.761
							C12.75,12.292,12.009,12.04,11,12.04z"/>
					</g>
				</g>
			</g>
		</g>
	</g>
</g>
</svg>
