<?xml version="1.0" encoding="utf-8"?>
<!-- Generator: Adobe Illustrator 16.0.0, SVG Export Plug-In . SVG Version: 6.00 Build 0)  -->
<!DOCTYPE svg PUBLIC "-//W3C//DTD SVG 1.1//EN" "http://www.w3.org/Graphics/SVG/1.1/DTD/svg11.dtd">
<svg version="1.1" id="Layer_1" xmlns="http://www.w3.org/2000/svg" xmlns:xlink="http://www.w3.org/1999/xlink" x="0px" y="0px"
	 width="32px" height="32px" viewBox="0 0 32 32" enable-background="new 0 0 32 32" xml:space="preserve">
<g id="making_money_x2C__gear_x2C__cogwheel_x2C__gear_wheel">
	<g>
		<g>
			<g>
				<path fill="#DEE4E7" d="M14.479,8.072V6.588L13.117,6.29c-0.113-0.482-0.305-0.935-0.559-1.344l0.753-1.176l-1.049-1.049
					l-1.175,0.752c-0.409-0.254-0.861-0.445-1.344-0.559l-0.298-1.36H7.962l-0.298,1.36C7.182,3.028,6.729,3.22,6.32,3.474
					L5.146,2.722L4.097,3.771L4.85,4.946C4.596,5.355,4.404,5.808,4.291,6.29L2.93,6.588v1.484L4.292,8.37
					C4.404,8.853,4.596,9.305,4.85,9.714l-0.753,1.175l1.049,1.049l1.175-0.752c0.409,0.254,0.861,0.444,1.344,0.557l0.298,1.363
					h1.484l0.298-1.363c0.482-0.112,0.935-0.303,1.344-0.557l1.175,0.753l1.049-1.05l-0.753-1.175
					c0.254-0.409,0.445-0.861,0.558-1.344L14.479,8.072z M8.703,9.806c-1.367,0-2.475-1.107-2.475-2.475s1.107-2.475,2.475-2.475
					s2.475,1.107,2.475,2.475S10.07,9.806,8.703,9.806z"/>
			</g>
		</g>
		<g>
			<g>
				<path fill="#455A64" d="M4.097,11.389c-0.093,0-0.187-0.025-0.27-0.079c-0.232-0.149-0.301-0.458-0.151-0.691L4.265,9.7
					C4.108,9.41,3.982,9.106,3.888,8.793L2.823,8.561C2.594,8.511,2.43,8.307,2.43,8.072V6.588c0-0.235,0.164-0.438,0.394-0.488
					l1.064-0.233C3.982,5.553,4.108,5.25,4.265,4.96L3.676,4.04C3.549,3.842,3.577,3.583,3.743,3.417l1.049-1.049
					c0.167-0.166,0.425-0.195,0.623-0.067l0.919,0.588c0.29-0.156,0.594-0.282,0.906-0.377l0.233-1.064
					c0.05-0.229,0.253-0.393,0.488-0.393h1.484c0.235,0,0.438,0.164,0.488,0.393l0.233,1.064c0.313,0.095,0.616,0.221,0.906,0.377
					l0.919-0.588c0.198-0.127,0.457-0.099,0.623,0.067l1.049,1.049c0.166,0.166,0.194,0.425,0.067,0.623l-0.589,0.92
					c0.156,0.29,0.282,0.593,0.377,0.907L14.585,6.1c0.229,0.05,0.394,0.253,0.394,0.488v1.484c0,0.235-0.164,0.438-0.394,0.488
					l-1.362,0.298c-0.264,0.06-0.536-0.112-0.595-0.381c-0.06-0.27,0.111-0.537,0.382-0.595l0.969-0.212V6.99l-0.968-0.212
					c-0.188-0.041-0.336-0.187-0.38-0.374c-0.1-0.42-0.267-0.822-0.497-1.194c-0.102-0.164-0.101-0.371,0.004-0.533l0.536-0.837
					l-0.48-0.48l-0.836,0.535C11.195,3.999,10.988,4,10.824,3.898C10.452,3.667,10.051,3.5,9.63,3.402
					C9.442,3.358,9.297,3.21,9.256,3.022L9.044,2.055h-0.68L8.152,3.022C8.111,3.21,7.966,3.358,7.778,3.402
					C7.357,3.5,6.956,3.667,6.584,3.898C6.42,4,6.213,3.999,6.051,3.895L5.215,3.359l-0.48,0.48l0.536,0.837
					c0.104,0.162,0.105,0.37,0.004,0.533c-0.23,0.372-0.397,0.774-0.497,1.194c-0.044,0.188-0.191,0.333-0.38,0.374L3.43,6.99v0.68
					l0.969,0.212c0.188,0.041,0.337,0.187,0.381,0.375C4.877,8.676,5.043,9.078,5.274,9.45c0.102,0.164,0.101,0.371-0.004,0.534
					l-0.753,1.175C4.422,11.308,4.261,11.389,4.097,11.389z M8.703,10.306c-1.641,0-2.975-1.334-2.975-2.975
					s1.334-2.975,2.975-2.975s2.975,1.334,2.975,2.975S10.344,10.306,8.703,10.306z M8.703,5.356c-1.089,0-1.975,0.886-1.975,1.975
					s0.886,1.975,1.975,1.975s1.975-0.886,1.975-1.975S9.792,5.356,8.703,5.356z"/>
			</g>
		</g>
	</g>
	<g>
		<g>
			<g>
				<path fill="#A3B4BC" d="M30.475,25.473v-1.484l-1.361-0.298c-0.113-0.482-0.305-0.935-0.559-1.344l0.753-1.176l-1.049-1.049
					l-1.175,0.752c-0.409-0.254-0.861-0.445-1.344-0.559l-0.298-1.36h-1.484l-0.298,1.36c-0.482,0.113-0.935,0.305-1.344,0.559
					l-1.175-0.752l-1.049,1.049l0.753,1.176c-0.254,0.409-0.445,0.861-0.559,1.344l-1.361,0.298v1.484l1.362,0.298
					c0.112,0.482,0.304,0.935,0.558,1.344l-0.753,1.175l1.049,1.049l1.175-0.752c0.409,0.254,0.861,0.444,1.344,0.557l0.298,1.363
					h1.484l0.298-1.363c0.482-0.112,0.935-0.303,1.344-0.557l1.175,0.753l1.049-1.05l-0.753-1.175
					c0.254-0.409,0.445-0.861,0.558-1.344L30.475,25.473z M24.699,27.206c-1.367,0-2.475-1.107-2.475-2.475s1.107-2.475,2.475-2.475
					s2.475,1.107,2.475,2.475S26.066,27.206,24.699,27.206z"/>
			</g>
		</g>
		<g>
			<g>
				<path fill="#455A64" d="M25.442,31.006h-1.484c-0.235,0-0.438-0.164-0.488-0.394l-0.233-1.065
					c-0.313-0.095-0.616-0.221-0.906-0.376l-0.919,0.588c-0.229,0.148-0.542,0.082-0.69-0.151c-0.149-0.232-0.081-0.542,0.151-0.69
					l1.175-0.752c0.163-0.104,0.37-0.104,0.533-0.004c0.371,0.23,0.772,0.396,1.193,0.494c0.188,0.044,0.334,0.192,0.375,0.381
					l0.212,0.97h0.68l0.212-0.97c0.041-0.188,0.187-0.337,0.375-0.381c0.421-0.098,0.822-0.264,1.193-0.494
					c0.164-0.101,0.371-0.101,0.533,0.004l0.836,0.535l0.48-0.479l-0.536-0.837c-0.104-0.162-0.105-0.369-0.004-0.533
					c0.231-0.372,0.397-0.774,0.495-1.193c0.044-0.188,0.192-0.334,0.381-0.375l0.969-0.212v-0.68l-0.968-0.212
					c-0.188-0.041-0.336-0.187-0.38-0.374c-0.1-0.421-0.267-0.822-0.497-1.194c-0.102-0.164-0.101-0.371,0.004-0.533l0.536-0.837
					l-0.48-0.48l-0.836,0.535c-0.162,0.105-0.369,0.105-0.533,0.004c-0.372-0.23-0.773-0.397-1.194-0.497
					c-0.188-0.044-0.333-0.191-0.374-0.379l-0.212-0.968h-0.68l-0.212,0.968c-0.059,0.269-0.321,0.44-0.596,0.381
					c-0.27-0.059-0.44-0.325-0.381-0.596l0.298-1.36c0.05-0.229,0.253-0.393,0.488-0.393h1.484c0.235,0,0.438,0.163,0.488,0.393
					l0.233,1.064c0.313,0.095,0.616,0.221,0.906,0.377l0.919-0.588c0.198-0.129,0.457-0.099,0.623,0.067l1.049,1.049
					c0.166,0.166,0.194,0.426,0.067,0.623l-0.589,0.92c0.156,0.29,0.282,0.594,0.377,0.906l1.064,0.233
					c0.229,0.05,0.394,0.253,0.394,0.488v1.484c0,0.235-0.164,0.438-0.394,0.488l-1.064,0.233c-0.095,0.313-0.221,0.615-0.377,0.906
					l0.589,0.919c0.127,0.197,0.099,0.457-0.067,0.623l-1.049,1.05c-0.166,0.167-0.425,0.193-0.623,0.067l-0.919-0.589
					c-0.29,0.155-0.593,0.281-0.906,0.376l-0.233,1.065C25.881,30.842,25.678,31.006,25.442,31.006z M24.699,27.706
					c-1.641,0-2.975-1.334-2.975-2.975s1.334-2.975,2.975-2.975s2.975,1.334,2.975,2.975S26.34,27.706,24.699,27.706z
					 M24.699,22.757c-1.089,0-1.975,0.886-1.975,1.975s0.886,1.975,1.975,1.975s1.975-0.886,1.975-1.975
					S25.788,22.757,24.699,22.757z"/>
			</g>
		</g>
	</g>
	<g>
		<g>
			<path fill="#1DE9B6" d="M18.161,23.987c0.104-0.218,0.195-0.438,0.277-0.659l2.385-0.066l0.271-1.982l-2.195-0.677
				c-0.011-0.686-0.117-1.363-0.311-2.014l1.774-1.366l-0.945-1.764l-2.063,0.705c-0.415-0.539-0.901-1.029-1.464-1.448l0.55-2.109
				l-1.801-0.87l-1.311,1.742c-0.653-0.174-1.313-0.251-1.97-0.246l-0.806-2.055l-1.968,0.354l-0.038,2.269
				c-0.581,0.24-1.133,0.551-1.641,0.931l-1.955-1.25l-1.385,1.444l1.392,1.98c-0.106,0.181-0.212,0.363-0.305,0.556
				c-0.162,0.336-0.289,0.681-0.396,1.027l-2.483,0.147l-0.271,1.982l2.438,0.838h0.011c0.053,0.531,0.159,1.054,0.322,1.559
				L4.227,23.04l-1.992,1.637L3.18,26.44l2.465-0.755l0.095-0.052c0.347,0.4,0.739,0.768,1.174,1.093l-0.756,2.566l1.801,0.87
				l1.541-2.188c0.548,0.144,1.101,0.223,1.653,0.241l0.892,2.505l1.968-0.354l-0.039-2.6c0.551-0.2,1.075-0.468,1.565-0.793
				l2.107,1.443l1.385-1.443l-1.476-1.968C17.777,24.686,17.985,24.35,18.161,23.987z"/>
		</g>
		<g>
			<path fill="#455A64" d="M12.044,31.222c-0.208,0-0.399-0.13-0.471-0.332l-0.78-2.192c-0.363-0.027-0.725-0.08-1.08-0.157
				l-1.346,1.911c-0.142,0.2-0.405,0.27-0.627,0.162l-1.801-0.87c-0.22-0.106-0.331-0.356-0.262-0.592l0.66-2.24
				c-0.261-0.214-0.509-0.444-0.739-0.688l-2.272,0.696c-0.229,0.067-0.475-0.031-0.587-0.242l-0.945-1.764
				c-0.113-0.211-0.062-0.471,0.123-0.623l1.779-1.462c-0.088-0.324-0.156-0.657-0.204-0.996l-2.151-0.74
				c-0.227-0.077-0.365-0.304-0.333-0.54l0.271-1.982c0.032-0.237,0.228-0.418,0.466-0.432l2.145-0.127
				c0.097-0.277,0.2-0.53,0.314-0.767c0.051-0.105,0.105-0.209,0.162-0.311l-1.208-1.721c-0.138-0.195-0.117-0.461,0.048-0.634
				l1.385-1.444c0.166-0.171,0.43-0.202,0.631-0.074l1.67,1.068c0.366-0.25,0.755-0.47,1.162-0.657l0.032-1.948
				c0.004-0.239,0.177-0.441,0.411-0.484l1.968-0.354c0.242-0.042,0.468,0.088,0.555,0.31l0.684,1.744
				c0.5,0.019,0.971,0.077,1.424,0.176l1.113-1.479c0.143-0.19,0.399-0.254,0.617-0.149l1.801,0.87
				c0.215,0.104,0.326,0.345,0.266,0.576l-0.467,1.791c0.384,0.313,0.741,0.666,1.067,1.055l1.731-0.592
				c0.235-0.077,0.487,0.021,0.603,0.236l0.945,1.764c0.116,0.216,0.059,0.483-0.136,0.633L19.16,18.78
				c0.119,0.477,0.194,0.962,0.225,1.449l1.857,0.572c0.233,0.072,0.381,0.303,0.348,0.545l-0.271,1.982
				c-0.033,0.243-0.236,0.426-0.481,0.433l-2.054,0.057c-0.053,0.129-0.11,0.258-0.171,0.386c-0.125,0.256-0.271,0.515-0.445,0.786
				l1.264,1.685c0.146,0.195,0.13,0.47-0.04,0.646l-1.385,1.443c-0.169,0.178-0.441,0.206-0.643,0.066l-1.836-1.257
				c-0.339,0.205-0.69,0.384-1.05,0.534l0.034,2.252c0.004,0.245-0.171,0.456-0.411,0.5l-1.968,0.354
				C12.103,31.219,12.073,31.222,12.044,31.222z M9.499,27.476c0.042,0,0.085,0.005,0.127,0.017
				c0.503,0.132,1.022,0.207,1.543,0.225c0.205,0.007,0.386,0.139,0.454,0.332l0.75,2.105l1.133-0.204l-0.033-2.175
				c-0.003-0.213,0.129-0.405,0.329-0.478c0.506-0.185,0.997-0.433,1.46-0.74c0.17-0.112,0.391-0.111,0.559,0.005l1.758,1.203
				l0.798-0.831l-1.222-1.628c-0.129-0.172-0.133-0.407-0.011-0.585c0.236-0.34,0.422-0.652,0.567-0.952
				c0.097-0.202,0.182-0.407,0.259-0.615c0.07-0.191,0.251-0.32,0.455-0.326l1.961-0.055l0.156-1.142l-1.79-0.552
				c-0.207-0.063-0.349-0.253-0.353-0.47c-0.01-0.633-0.107-1.266-0.29-1.879c-0.059-0.198,0.011-0.412,0.175-0.539l1.438-1.107
				l-0.545-1.015l-1.661,0.567c-0.206,0.07-0.428,0.001-0.559-0.169c-0.4-0.521-0.859-0.975-1.366-1.352
				c-0.163-0.121-0.236-0.33-0.185-0.527l0.445-1.712l-1.061-0.513l-1.063,1.414c-0.123,0.162-0.336,0.232-0.527,0.182
				c-0.573-0.152-1.173-0.229-1.783-0.229c-0.206,0-0.449-0.126-0.524-0.317l-0.655-1.672l-1.159,0.208L9.048,13.81
				c-0.004,0.2-0.125,0.378-0.31,0.454c-0.549,0.227-1.064,0.519-1.531,0.868c-0.168,0.126-0.392,0.134-0.569,0.021l-1.609-1.028
				l-0.815,0.851l1.155,1.645c0.112,0.16,0.121,0.372,0.021,0.541s-0.198,0.339-0.285,0.519c-0.136,0.282-0.257,0.596-0.369,0.959
				c-0.062,0.198-0.24,0.338-0.448,0.351l-2.073,0.123l-0.16,1.169l2.03,0.697c0.193,0.057,0.344,0.224,0.364,0.43
				c0.051,0.502,0.151,0.991,0.301,1.455c0.075,0.231-0.028,0.484-0.245,0.597l-1.635,1.344l0.557,1.039L5.5,25.195
				c0.205-0.114,0.464-0.067,0.617,0.111c0.326,0.377,0.695,0.72,1.096,1.02c0.167,0.125,0.239,0.341,0.18,0.542l-0.636,2.159
				l1.037,0.501l1.296-1.841C9.186,27.553,9.339,27.476,9.499,27.476z"/>
		</g>
	</g>
	<g>
		<g>
			<path fill="#FFF176" d="M30.5,9.398V7.6l-1.649-0.361c-0.138-0.585-0.369-1.133-0.677-1.629l0.912-1.423l-1.271-1.271
				l-1.424,0.912c-0.496-0.308-1.044-0.539-1.629-0.676L24.4,1.5h-1.799L22.24,3.15c-0.585,0.138-1.133,0.369-1.629,0.676
				l-1.424-0.912l-1.271,1.272l0.912,1.423c-0.308,0.497-0.539,1.044-0.677,1.629L16.502,7.6v1.798l1.65,0.361
				c0.137,0.585,0.368,1.133,0.676,1.629l-0.912,1.424l1.271,1.271l1.424-0.912c0.496,0.309,1.044,0.539,1.629,0.676l0.361,1.651
				H24.4l0.361-1.651c0.585-0.137,1.133-0.367,1.629-0.676l1.424,0.913l1.271-1.272l-0.912-1.423
				c0.308-0.497,0.539-1.044,0.676-1.629L30.5,9.398z M23.5,11.5c-1.657,0-3-1.343-3-3s1.343-3,3-3s3,1.343,3,3
				S25.157,11.5,23.5,11.5z"/>
		</g>
		<g>
			<path fill="#455A64" d="M24.4,15.999h-1.799c-0.235,0-0.438-0.163-0.488-0.394l-0.296-1.352
				c-0.415-0.121-0.814-0.287-1.194-0.496l-1.166,0.747c-0.198,0.126-0.457,0.099-0.623-0.067l-1.271-1.271
				c-0.166-0.166-0.194-0.425-0.067-0.623l0.747-1.167c-0.209-0.38-0.375-0.78-0.495-1.194l-1.352-0.296
				c-0.23-0.05-0.394-0.253-0.394-0.488V7.6c0-0.235,0.163-0.438,0.393-0.488l1.352-0.296c0.121-0.414,0.287-0.813,0.496-1.194
				l-0.747-1.166c-0.127-0.198-0.099-0.457,0.067-0.623l1.271-1.272C19,2.395,19.259,2.366,19.457,2.493l1.167,0.747
				c0.379-0.208,0.778-0.375,1.193-0.496l0.296-1.352C22.163,1.164,22.366,1,22.602,1H24.4c0.235,0,0.438,0.164,0.488,0.393
				l0.296,1.352c0.415,0.121,0.814,0.287,1.194,0.496l1.166-0.747c0.198-0.127,0.457-0.099,0.623,0.067l1.271,1.271
				c0.166,0.166,0.194,0.425,0.067,0.623L28.76,5.622c0.209,0.38,0.375,0.78,0.496,1.194l1.352,0.296C30.837,7.162,31,7.365,31,7.6
				v1.798c0,0.235-0.163,0.438-0.394,0.488l-1.352,0.296c-0.12,0.414-0.286,0.813-0.495,1.194l0.747,1.166
				c0.127,0.198,0.099,0.457-0.067,0.623l-1.271,1.272c-0.167,0.167-0.426,0.193-0.623,0.067l-1.167-0.748
				c-0.379,0.209-0.778,0.375-1.193,0.496l-0.296,1.352C24.839,15.836,24.636,15.999,24.4,15.999z M23.004,14.999h0.994l0.275-1.258
				c0.041-0.188,0.187-0.335,0.374-0.38c0.523-0.123,1.021-0.33,1.479-0.614c0.163-0.102,0.37-0.101,0.533,0.004l1.085,0.696
				l0.703-0.704l-0.695-1.085c-0.104-0.162-0.105-0.369-0.004-0.533c0.285-0.461,0.492-0.959,0.613-1.48
				c0.044-0.188,0.192-0.333,0.381-0.375L30,8.996V8.002l-1.257-0.275c-0.188-0.041-0.335-0.187-0.379-0.374
				c-0.123-0.521-0.33-1.02-0.615-1.48c-0.102-0.164-0.1-0.371,0.004-0.533l0.695-1.085l-0.703-0.702L26.66,4.247
				c-0.162,0.105-0.369,0.105-0.533,0.004c-0.459-0.285-0.957-0.491-1.479-0.614c-0.188-0.044-0.333-0.192-0.374-0.38L23.998,2
				h-0.994l-0.275,1.257c-0.041,0.188-0.187,0.335-0.374,0.38c-0.522,0.123-1.021,0.33-1.479,0.614
				c-0.164,0.101-0.371,0.1-0.533-0.004l-1.085-0.695l-0.703,0.703l0.695,1.085c0.104,0.162,0.105,0.369,0.004,0.533
				c-0.285,0.461-0.492,0.959-0.615,1.48c-0.044,0.187-0.191,0.333-0.379,0.374l-1.257,0.276v0.994l1.257,0.275
				c0.188,0.041,0.337,0.187,0.381,0.375c0.121,0.521,0.328,1.019,0.613,1.479c0.102,0.164,0.1,0.371-0.004,0.533l-0.695,1.085
				l0.703,0.702l1.085-0.694c0.163-0.104,0.37-0.105,0.533-0.004c0.458,0.284,0.956,0.491,1.479,0.614
				c0.188,0.045,0.333,0.191,0.374,0.38L23.004,14.999z M23.5,12c-1.93,0-3.5-1.57-3.5-3.5S21.57,5,23.5,5S27,6.57,27,8.5
				S25.43,12,23.5,12z M23.5,6C22.121,6,21,7.122,21,8.5s1.121,2.5,2.5,2.5S26,9.878,26,8.5S24.879,6,23.5,6z"/>
		</g>
	</g>
	<g>
		<g>
			<g>
				<g>
					<g>
						<path fill="#455A64" d="M11.5,24.998c1.402,0,2.5-1.098,2.5-2.5c0-1.135-0.771-1.961-2.291-2.457l-0.113-0.037
							c-0.568-0.186-1.096-0.436-1.096-1.006c0-0.588,0.412-1,1-1c0.705,0,1.174,0.379,1.178,0.383
							c0.213,0.178,0.527,0.15,0.705-0.061s0.15-0.525-0.061-0.703c-0.029-0.025-0.746-0.619-1.822-0.619c-1.141,0-2,0.861-2,2
							c0,1.375,1.344,1.813,1.785,1.955l0.113,0.037C12.477,21.342,13,21.836,13,22.498c0,0.855-0.645,1.5-1.5,1.5
							c-0.928,0-1.459-0.611-1.6-0.799c-0.166-0.223-0.48-0.266-0.699-0.102c-0.223,0.166-0.268,0.48-0.102,0.701
							C9.311,24.08,10.109,24.998,11.5,24.998z"/>
					</g>
				</g>
			</g>
		</g>
		<g>
			<g>
				<g>
					<g>
						<path fill="#455A64" d="M11.5,25.998c0.277,0,0.5-0.223,0.5-0.5v-0.5c0-0.275-0.223-0.5-0.5-0.5c-0.275,0-0.5,0.225-0.5,0.5
							v0.5C11,25.775,11.225,25.998,11.5,25.998z"/>
					</g>
				</g>
			</g>
		</g>
		<g>
			<g>
				<g>
					<g>
						<path fill="#455A64" d="M11.5,17.498c0.277,0,0.5-0.223,0.5-0.5v-0.5c0-0.275-0.223-0.5-0.5-0.5c-0.275,0-0.5,0.225-0.5,0.5
							v0.5C11,17.275,11.225,17.498,11.5,17.498z"/>
					</g>
				</g>
			</g>
		</g>
	</g>
</g>
</svg>
