<?xml version="1.0" encoding="utf-8"?>
<!-- Generator: Adobe Illustrator 16.0.0, SVG Export Plug-In . SVG Version: 6.00 Build 0)  -->
<!DOCTYPE svg PUBLIC "-//W3C//DTD SVG 1.1//EN" "http://www.w3.org/Graphics/SVG/1.1/DTD/svg11.dtd">
<svg version="1.1" id="Layer_1" xmlns="http://www.w3.org/2000/svg" xmlns:xlink="http://www.w3.org/1999/xlink" x="0px" y="0px"
	 width="32px" height="32px" viewBox="0 0 32 32" enable-background="new 0 0 32 32" xml:space="preserve">
<g id="money_growth_x2C__flower">
	<g id="start_up">
		<g>
			<g>
				<path fill="#455A64" d="M16.5,25c-0.276,0-0.5-0.224-0.5-0.5v-15C16,9.224,16.224,9,16.5,9S17,9.224,17,9.5v15
					C17,24.776,16.776,25,16.5,25z"/>
			</g>
		</g>
		<g>
			<g>
				<g>
					<g>
						<path fill="#FFFFFF" d="M21.471,17.74c1.436-0.375,2.359-1.232,2.864-2.426c0.352-0.832,1.21-1.512,2.133-1.67
							c0,0-3.333-1.967-5.968-0.426c-2.636,1.541-1.953,4.467-1.953,4.467S20.035,18.115,21.471,17.74z"/>
					</g>
				</g>
			</g>
			<g>
				<g>
					<path fill="#1DE9B6" d="M21,14.219c-1.706,0.998-2.02,2.57-2.03,3.559c0.541,0.102,1.527,0.217,2.501-0.037
						c1.436-0.375,2.359-1.232,2.864-2.426c0.225-0.531,0.668-0.984,1.191-1.295C24.314,13.616,22.54,13.318,21,14.219z"/>
				</g>
			</g>
			<g>
				<g>
					<g>
						<path fill="#455A64" d="M20.191,18.394c-0.977,0-1.738-0.215-1.783-0.229c-0.174-0.05-0.307-0.19-0.349-0.367
							c-0.028-0.125-0.685-3.083,1.9-4.83c0.229-0.153,0.539-0.095,0.694,0.135c0.155,0.229,0.095,0.54-0.134,0.694
							c-1.597,1.078-1.603,2.791-1.531,3.476c0.476,0.094,1.438,0.223,2.355-0.017c1.229-0.321,2.058-1.02,2.529-2.137
							c0.259-0.611,0.74-1.146,1.324-1.509c-0.738-0.28-1.797-0.561-2.858-0.459c-0.268,0.023-0.519-0.174-0.546-0.45
							c-0.026-0.275,0.175-0.519,0.45-0.545c2.285-0.221,4.389,1.006,4.478,1.058c0.181,0.106,0.275,0.314,0.238,0.521
							c-0.038,0.206-0.201,0.367-0.407,0.402c-0.748,0.128-1.47,0.692-1.757,1.372c-0.594,1.402-1.67,2.315-3.199,2.715
							C21.115,18.35,20.632,18.394,20.191,18.394z"/>
					</g>
				</g>
			</g>
			<g>
				<g>
					<path fill="#1DE9B6" d="M16.561,19.375l1.986-1.689L16.561,19.375z"/>
				</g>
				<g>
					<path fill="#455A64" d="M16.561,19.875c-0.142,0-0.282-0.06-0.381-0.176c-0.179-0.21-0.153-0.526,0.057-0.705l1.986-1.689
						c0.212-0.179,0.525-0.155,0.705,0.057c0.179,0.21,0.153,0.526-0.057,0.705l-1.986,1.689
						C16.79,19.836,16.676,19.875,16.561,19.875z"/>
				</g>
			</g>
		</g>
		<g>
			<g>
				<g>
					<g>
						<path fill="#FFFFFF" d="M11.463,16.74c-1.436-0.375-2.359-1.232-2.864-2.426c-0.352-0.832-1.21-1.512-2.133-1.67
							c0,0,3.333-1.967,5.968-0.426c2.636,1.541,1.953,4.467,1.953,4.467S12.898,17.115,11.463,16.74z"/>
					</g>
				</g>
			</g>
			<g>
				<g>
					<path fill="#1DE9B6" d="M12.934,13.219c-1.837-1.074-4.01-0.444-5.159,0.035c0.359,0.291,0.653,0.656,0.824,1.061
						c0.505,1.193,1.429,2.051,2.864,2.426s2.924-0.055,2.924-0.055s0.248-1.08-0.145-2.271
						C13.939,13.979,13.523,13.563,12.934,13.219z"/>
				</g>
			</g>
			<g>
				<g>
					<g>
						<path fill="#455A64" d="M12.744,17.394c-0.44,0-0.925-0.044-1.407-0.17c-1.529-0.399-2.605-1.313-3.199-2.715
							c-0.287-0.68-1.009-1.244-1.757-1.372c-0.206-0.035-0.369-0.196-0.407-0.402c-0.037-0.207,0.058-0.415,0.238-0.521
							c0.028-0.017,0.693-0.406,1.669-0.713c0.264-0.082,0.544,0.063,0.627,0.327c0.083,0.264-0.063,0.544-0.326,0.627
							c-0.159,0.05-0.309,0.103-0.448,0.155c0.586,0.364,1.067,0.899,1.326,1.51c0.472,1.117,1.3,1.815,2.529,2.137
							c0.925,0.242,1.883,0.112,2.357,0.019c0.078-0.719,0.073-2.55-1.765-3.625c-0.568-0.332-1.228-0.507-1.961-0.521
							c-0.275-0.005-0.495-0.233-0.49-0.509c0.005-0.273,0.229-0.491,0.5-0.491c0.003,0,0.006,0,0.01,0
							c0.905,0.017,1.729,0.238,2.445,0.657c2.337,1.366,2.453,3.876,2.188,5.012c-0.042,0.176-0.175,0.316-0.349,0.367
							C14.479,17.179,13.72,17.394,12.744,17.394z"/>
					</g>
				</g>
			</g>
			<g>
				<g>
					<path fill="#1DE9B6" d="M16.391,18.531l-2-1.75L16.391,18.531z"/>
				</g>
				<g>
					<path fill="#455A64" d="M16.391,19.031c-0.117,0-0.234-0.041-0.329-0.124l-2-1.75c-0.208-0.182-0.229-0.498-0.047-0.706
						c0.182-0.209,0.498-0.229,0.705-0.047l2,1.75c0.208,0.182,0.229,0.498,0.047,0.706C16.668,18.974,16.529,19.031,16.391,19.031z
						"/>
				</g>
			</g>
		</g>
		<g>
			<g>
				<g>
					<g>
						<circle fill="#FFFFFF" cx="16.484" cy="6" r="4.5"/>
					</g>
				</g>
			</g>
		</g>
		<g>
			<g>
				<g>
					<g>
						<path fill="#FFF176" d="M20.934,6.5C20.686,4.53,19.021,3,16.984,3c-2.209,0-4,1.791-4,4c0,1.113,0.457,2.118,1.19,2.844
							c0.677,0.408,1.462,0.656,2.31,0.656C18.799,10.5,20.682,8.747,20.934,6.5z"/>
					</g>
				</g>
			</g>
		</g>
		<g>
			<g>
				<g>
					<g>
						<path fill="#455A64" d="M16.484,11c-2.757,0-5-2.243-5-5s2.243-5,5-5s5,2.243,5,5S19.241,11,16.484,11z M16.484,2
							c-2.205,0-4,1.795-4,4s1.795,4,4,4s4-1.795,4-4S18.689,2,16.484,2z"/>
					</g>
				</g>
			</g>
		</g>
	</g>
	<g>
		<g>
			<g>
				<polygon fill="#FF8A80" points="21.5,30.5 11.5,30.5 10.5,22.5 22.5,22.5 				"/>
			</g>
		</g>
		<g>
			<g>
				<rect x="11" y="24" fill="#E67C73" width="11" height="1"/>
			</g>
		</g>
		<g>
			<g>
				<path fill="#455A64" d="M21.5,31h-10c-0.252,0-0.465-0.188-0.496-0.438l-1-8c-0.018-0.142,0.026-0.286,0.121-0.393
					S10.356,22,10.5,22h12c0.144,0,0.28,0.062,0.375,0.169s0.139,0.251,0.121,0.393l-1,8C21.965,30.812,21.752,31,21.5,31z
					 M11.941,30h9.117l0.875-7H11.066L11.941,30z"/>
			</g>
		</g>
	</g>
	<g>
		<g>
			<g>
				<path fill="#FFAFA9" d="M24,22c0,0.825-0.675,1.5-1.5,1.5h-12C9.675,23.5,9,22.825,9,22l0,0c0-0.825,0.675-1.5,1.5-1.5h12
					C23.325,20.5,24,21.175,24,22L24,22z"/>
			</g>
		</g>
		<g>
			<g>
				<path fill="#FF8A80" d="M22.5,23.5c0.825,0,1.5-0.675,1.5-1.5H11c-0.552,0-1,0.449-1,1c0,0.162,0.047,0.308,0.115,0.443
					c0.124,0.033,0.251,0.057,0.385,0.057H22.5z"/>
			</g>
		</g>
		<g>
			<g>
				<path fill="#455A64" d="M22.5,24h-12c-1.103,0-2-0.897-2-2s0.897-2,2-2c0.276,0,0.5,0.224,0.5,0.5S10.776,21,10.5,21
					c-0.552,0-1,0.449-1,1s0.448,1,1,1h12c0.552,0,1-0.449,1-1s-0.448-1-1-1h-10c-0.276,0-0.5-0.224-0.5-0.5s0.224-0.5,0.5-0.5h10
					c1.103,0,2,0.897,2,2S23.603,24,22.5,24z"/>
			</g>
		</g>
	</g>
	<g>
		<g>
			<g>
				<path fill="#455A64" d="M22.563,3c-0.172,0-0.341-0.089-0.433-0.25c-0.139-0.239-0.057-0.545,0.183-0.683l1.731-1
					c0.238-0.139,0.545-0.058,0.683,0.183c0.139,0.239,0.057,0.545-0.183,0.683l-1.731,1C22.733,2.979,22.647,3,22.563,3z"/>
			</g>
		</g>
		<g>
			<g>
				<path fill="#455A64" d="M25.5,6h-2C23.224,6,23,5.776,23,5.5S23.224,5,23.5,5h2C25.776,5,26,5.224,26,5.5S25.776,6,25.5,6z"/>
			</g>
			<g>
				<path fill="#455A64" d="M9.5,6h-2C7.224,6,7,5.776,7,5.5S7.224,5,7.5,5h2C9.776,5,10,5.224,10,5.5S9.776,6,9.5,6z"/>
			</g>
		</g>
		<g>
			<g>
				<path fill="#455A64" d="M10.438,3c-0.085,0-0.171-0.021-0.25-0.067l-1.731-1C8.217,1.795,8.135,1.489,8.273,1.25
					c0.138-0.24,0.445-0.32,0.683-0.183l1.731,1c0.239,0.138,0.321,0.444,0.183,0.683C10.778,2.911,10.609,3,10.438,3z"/>
			</g>
		</g>
	</g>
</g>
</svg>
