<?xml version="1.0" encoding="utf-8"?>
<!-- Generator: Adobe Illustrator 16.0.0, SVG Export Plug-In . SVG Version: 6.00 Build 0)  -->
<!DOCTYPE svg PUBLIC "-//W3C//DTD SVG 1.1//EN" "http://www.w3.org/Graphics/SVG/1.1/DTD/svg11.dtd">
<svg version="1.1" id="Layer_1" xmlns="http://www.w3.org/2000/svg" xmlns:xlink="http://www.w3.org/1999/xlink" x="0px" y="0px"
	 width="32px" height="32px" viewBox="0 0 32 32" enable-background="new 0 0 32 32" xml:space="preserve">
<g id="resubmit">
	<g id="recalculate_1_">
		<g>
			<g>
				<g>
					<g>
						<g>
							<g>
								<g>
									<g>
										<polygon fill="#FFF176" points="25.531,30.5 9.469,30.5 9.469,8.5 21.531,8.5 25.531,12.5 										"/>
									</g>
								</g>
							</g>
						</g>
					</g>
				</g>
			</g>
			<g>
				<g>
					<g>
						<g>
							<g>
								<g>
									<path fill="#455A64" d="M25.5,24c-0.276,0-0.5-0.224-0.5-0.5v-11c0-0.276,0.224-0.5,0.5-0.5s0.5,0.224,0.5,0.5v11
										C26,23.776,25.776,24,25.5,24z"/>
								</g>
							</g>
						</g>
					</g>
				</g>
				<g>
					<g>
						<g>
							<g>
								<g>
									<path fill="#455A64" d="M13.5,31h-4C9.224,31,9,30.776,9,30.5v-22C9,8.224,9.224,8,9.5,8h12C21.776,8,22,8.224,22,8.5
										S21.776,9,21.5,9H10v21h3.5c0.276,0,0.5,0.224,0.5,0.5S13.776,31,13.5,31z"/>
								</g>
							</g>
						</g>
					</g>
				</g>
			</g>
		</g>
		<g id="transfer_1_">
			<g>
				<g>
					<g>
						<g>
							<g>
								<g>
									<path fill="#80D8FF" d="M19.808,1.931C12.039-0.007,4.169,4.723,2.231,12.492c-0.95,3.814-0.279,7.645,1.554,10.792
										l-0.058,0.034l-1.904,1.145l5.718,3.046l-0.004-6.479l-1.905,1.145c0,0-2.851-3.619-1.459-9.198
										c1.67-6.697,8.575-11.26,15.272-9.59c7.036,1.754,11.408,8.846,9.654,15.88c-1.585,6.356-7.235,10.65-13.131,10.851v0.369
										c6.517,0.019,12.454-4.372,14.101-10.978C32.007,11.738,27.578,3.868,19.808,1.931z"/>
								</g>
							</g>
						</g>
					</g>
				</g>
				<g>
					<g>
						<g>
							<g>
								<g>
									<path fill="#455A64" d="M7.5,28.009c-0.081,0-0.161-0.02-0.235-0.059l-5.718-3.046c-0.158-0.085-0.26-0.248-0.265-0.429
										c-0.005-0.18,0.088-0.349,0.242-0.441l1.904-1.145c0.237-0.14,0.544-0.066,0.687,0.171s0.065,0.544-0.171,0.687
										l-1.147,0.689L7,26.676v-4.763l-1.151,0.689c-0.236,0.141-0.543,0.067-0.687-0.171c-0.143-0.237-0.065-0.544,0.171-0.687
										l1.905-1.145c0.154-0.094,0.349-0.095,0.504-0.007C7.899,20.683,8,20.849,8,21.029v6.479c0,0.176-0.092,0.338-0.242,0.429
										C7.679,27.985,7.589,28.009,7.5,28.009z"/>
								</g>
							</g>
						</g>
					</g>
				</g>
				<g>
					<g>
						<g>
							<g>
								<g>
									<path fill="#455A64" d="M5.469,22.738c-0.173,0-0.341-0.09-0.434-0.25c-1.688-2.93-2.166-6.352-1.348-9.634
										c0.066-0.269,0.334-0.431,0.606-0.364c0.268,0.067,0.431,0.339,0.364,0.606c-0.756,3.03-0.314,6.188,1.244,8.892
										c0.138,0.239,0.056,0.545-0.184,0.684C5.64,22.717,5.554,22.738,5.469,22.738z"/>
								</g>
							</g>
						</g>
					</g>
				</g>
				<g>
					<g>
						<g>
							<g>
								<g>
									<path fill="#455A64" d="M16.013,31.003c-0.005,0-0.01,0-0.014,0c-0.276,0-0.5-0.225-0.5-0.5c0-0.276,0.224-0.5,0.5-0.5l0,0
										c0.004,0,0.01,0,0.014,0c6.435,0,12.014-4.363,13.571-10.616c0.911-3.654,0.4-7.421-1.438-10.605
										c-1.851-3.206-4.855-5.467-8.46-6.365C16.059,1.51,12.295,2.073,9.09,3.999s-5.469,4.985-6.373,8.614
										c-0.873,3.504-0.372,7.163,1.411,10.302c0.137,0.24,0.053,0.545-0.188,0.682c-0.241,0.137-0.546,0.053-0.682-0.188
										c-1.911-3.363-2.448-7.283-1.513-11.038c0.97-3.888,3.395-7.166,6.828-9.229c3.435-2.063,7.466-2.663,11.354-1.696
										c3.87,0.965,7.097,3.393,9.084,6.836c1.969,3.41,2.516,7.44,1.542,11.348C28.886,26.327,22.906,31.003,16.013,31.003z"/>
								</g>
							</g>
						</g>
					</g>
				</g>
			</g>
		</g>
		<g>
			<g>
				<g>
					<g>
						<g>
							<g>
								<g>
									<path fill="#455A64" d="M5.5,11c0,0.275-0.225,0.5-0.5,0.5l0,0c-0.275,0-0.5-0.225-0.5-0.5l0,0c0-0.275,0.225-0.5,0.5-0.5
										l0,0C5.275,10.5,5.5,10.725,5.5,11L5.5,11z"/>
								</g>
							</g>
						</g>
					</g>
				</g>
			</g>
		</g>
	</g>
	<g>
		<g>
			<g>
				<g>
					<g>
						<polygon fill="#FFFFFF" points="25.5,12.5 21.5,12.5 21.5,8.5 						"/>
					</g>
				</g>
			</g>
		</g>
	</g>
	<g>
		<g>
			<g>
				<g>
					<g>
						<path fill="#455A64" d="M25.5,13h-4c-0.276,0-0.5-0.224-0.5-0.5V11c0-0.276,0.224-0.5,0.5-0.5S22,10.724,22,11v1h2.293
							l-3.146-3.146c-0.195-0.195-0.195-0.512,0-0.707s0.512-0.195,0.707,0l4,4c0.143,0.143,0.186,0.358,0.108,0.545
							S25.702,13,25.5,13z"/>
					</g>
				</g>
			</g>
		</g>
	</g>
	<g id="customer_survey_questionnaire_1_">
		<g>
			<g>
				<g>
					<g>
						<g>
							<g>
								<path fill="#455A64" d="M22.5,23h-5c-0.276,0-0.5-0.224-0.5-0.5s0.224-0.5,0.5-0.5h5c0.276,0,0.5,0.224,0.5,0.5
									S22.776,23,22.5,23z"/>
							</g>
						</g>
					</g>
				</g>
			</g>
		</g>
		<g>
			<g>
				<g>
					<g>
						<g>
							<g>
								<path fill="#455A64" d="M18.5,25h-6c-0.276,0-0.5-0.224-0.5-0.5s0.224-0.5,0.5-0.5h6c0.276,0,0.5,0.224,0.5,0.5
									S18.776,25,18.5,25z"/>
							</g>
						</g>
					</g>
				</g>
			</g>
		</g>
		<g>
			<g>
				<g>
					<g>
						<g>
							<g>
								<path fill="#455A64" d="M15.5,23h-3c-0.276,0-0.5-0.224-0.5-0.5s0.224-0.5,0.5-0.5h3c0.276,0,0.5,0.224,0.5,0.5
									S15.776,23,15.5,23z"/>
							</g>
						</g>
					</g>
				</g>
			</g>
		</g>
		<g>
			<g>
				<g>
					<g>
						<g>
							<g>
								<path fill="#455A64" d="M22.5,19h-6c-0.276,0-0.5-0.224-0.5-0.5s0.224-0.5,0.5-0.5h6c0.276,0,0.5,0.224,0.5,0.5
									S22.776,19,22.5,19z"/>
							</g>
						</g>
					</g>
				</g>
			</g>
		</g>
		<g>
			<g>
				<g>
					<g>
						<g>
							<g>
								<path fill="#455A64" d="M17.5,21h-5c-0.276,0-0.5-0.224-0.5-0.5s0.224-0.5,0.5-0.5h5c0.276,0,0.5,0.224,0.5,0.5
									S17.776,21,17.5,21z"/>
							</g>
						</g>
					</g>
				</g>
			</g>
		</g>
		<g>
			<g>
				<g>
					<g>
						<g>
							<g>
								<path fill="#455A64" d="M22.5,21h-3c-0.276,0-0.5-0.224-0.5-0.5s0.224-0.5,0.5-0.5h3c0.276,0,0.5,0.224,0.5,0.5
									S22.776,21,22.5,21z"/>
							</g>
						</g>
					</g>
				</g>
			</g>
		</g>
		<g>
			<g>
				<g>
					<g>
						<g>
							<g>
								<path fill="#455A64" d="M14.5,19h-2c-0.276,0-0.5-0.224-0.5-0.5s0.224-0.5,0.5-0.5h2c0.276,0,0.5,0.224,0.5,0.5
									S14.776,19,14.5,19z"/>
							</g>
						</g>
					</g>
				</g>
			</g>
		</g>
		<g>
			<g>
				<g>
					<g>
						<g>
							<g>
								<path fill="#455A64" d="M16.5,13h-4c-0.276,0-0.5-0.224-0.5-0.5s0.224-0.5,0.5-0.5h4c0.276,0,0.5,0.224,0.5,0.5
									S16.776,13,16.5,13z"/>
							</g>
						</g>
					</g>
				</g>
			</g>
		</g>
		<g>
			<g>
				<g>
					<g>
						<g>
							<g>
								<path fill="#455A64" d="M14.5,15h-2c-0.276,0-0.5-0.224-0.5-0.5s0.224-0.5,0.5-0.5h2c0.276,0,0.5,0.224,0.5,0.5
									S14.776,15,14.5,15z"/>
							</g>
						</g>
					</g>
				</g>
			</g>
		</g>
	</g>
</g>
</svg>
