<?xml version="1.0" encoding="utf-8"?>
<!-- Generator: Adobe Illustrator 16.0.0, SVG Export Plug-In . SVG Version: 6.00 Build 0)  -->
<!DOCTYPE svg PUBLIC "-//W3C//DTD SVG 1.1//EN" "http://www.w3.org/Graphics/SVG/1.1/DTD/svg11.dtd">
<svg version="1.1" id="Layer_1" xmlns="http://www.w3.org/2000/svg" xmlns:xlink="http://www.w3.org/1999/xlink" x="0px" y="0px"
	 width="32px" height="32px" viewBox="0 0 32 32" enable-background="new 0 0 32 32" xml:space="preserve">
<g id="video_chat_x2C__web_camera">
	<path fill="#80D8FF" d="M25.5,30.5L25.5,30.5c0-1.657-1.344-3-3-3h-0.721c-1.906,0-3.549-1.346-3.922-3.215L17.5,22.5h-3
		l-0.357,1.785c-0.373,1.87-2.016,3.215-3.922,3.215H9.5c-1.656,0-3,1.343-3,3l0,0H25.5z"/>
	<path fill="#FFFFFF" d="M10.443,27.433C10.208,27.476,9.967,27.5,9.721,27.5H9c-1.656,0-2.5,1.343-2.5,3H8
		c0-1.491,1.091-2.719,2.516-2.951C10.49,27.511,10.469,27.471,10.443,27.433z"/>
	<path fill="#73C2E6" d="M16,27c1.108,0,2.176-0.166,3.19-0.458c-0.667-0.567-1.151-1.348-1.333-2.258L17.5,22.5h-3l-0.357,1.784
		c-0.182,0.91-0.666,1.691-1.333,2.258C13.824,26.834,14.892,27,16,27z"/>
	<path fill="#455A64" d="M6.5,31C6.224,31,6,30.776,6,30.5C6,28.57,7.57,27,9.5,27h0.721c0.935,0,1.814-0.365,2.477-1.026
		c0.195-0.195,0.512-0.195,0.707,0s0.195,0.512,0,0.707C12.554,27.531,11.423,28,10.221,28H9.5C8.122,28,7,29.122,7,30.5
		C7,30.776,6.776,31,6.5,31z"/>
	<path fill="#455A64" d="M25.5,31c-0.276,0-0.5-0.224-0.5-0.5c0-1.378-1.122-2.5-2.5-2.5h-0.721c-2.138,0-3.994-1.521-4.412-3.618
		l-0.357-1.784c-0.054-0.271,0.121-0.534,0.392-0.588c0.269-0.055,0.535,0.121,0.588,0.392l0.357,1.785
		C18.673,25.817,20.116,27,21.779,27H22.5c1.93,0,3.5,1.57,3.5,3.5C26,30.776,25.776,31,25.5,31z"/>
	<g>
		<path fill="#73C2E6" d="M8.5,30.5h15H8.5z"/>
		<path fill="#455A64" d="M23.5,31h-15C8.224,31,8,30.776,8,30.5S8.224,30,8.5,30h15c0.276,0,0.5,0.224,0.5,0.5S23.776,31,23.5,31z"
			/>
	</g>
	<g>
		<circle fill="#455A64" cx="30.5" cy="10.5" r="0.5"/>
		<circle fill="#455A64" cx="1.5" cy="15.5" r="0.5"/>
	</g>
	<path fill="#455A64" d="M1.5,13.501c-0.276,0-0.5-0.224-0.5-0.5C1,8.995,2.561,5.227,5.394,2.394c0.195-0.195,0.512-0.195,0.707,0
		s0.195,0.512,0,0.707C3.457,5.746,2,9.262,2,13.001C2,13.278,1.776,13.501,1.5,13.501z"/>
	<path fill="#455A64" d="M26.253,23.753c-0.128,0-0.256-0.049-0.354-0.146c-0.195-0.195-0.195-0.512,0-0.707
		C28.544,20.255,30,16.739,30,13c0-0.276,0.224-0.5,0.5-0.5S31,12.723,31,13c0,4.007-1.561,7.774-4.394,10.607
		C26.509,23.704,26.381,23.753,26.253,23.753z"/>
	<circle fill="#ECEFF1" cx="16" cy="13" r="11.5"/>
	<path fill="#CFD8DC" d="M23.346,4.154C25.002,6.146,26,8.706,26,11.5C26,17.851,20.852,23,14.5,23
		c-2.794,0-5.354-0.998-7.346-2.654C9.264,22.883,12.442,24.5,16,24.5c6.352,0,11.5-5.149,11.5-11.5
		C27.5,9.442,25.883,6.264,23.346,4.154z"/>
	<path fill="#FFFFFF" d="M6,14.5C6,8.149,11.148,3,17.5,3c2.793,0,5.354,0.998,7.346,2.654C22.736,3.117,19.558,1.5,16,1.5
		C9.648,1.5,4.5,6.649,4.5,13c0,3.558,1.617,6.736,4.154,8.846C6.998,19.854,6,17.294,6,14.5z"/>
	<path fill="#455A64" d="M16,25C9.383,25,4,19.617,4,13c0-3.496,1.52-6.81,4.17-9.094c0.208-0.18,0.523-0.157,0.705,0.053
		c0.18,0.209,0.157,0.525-0.053,0.705C6.393,6.757,5,9.796,5,13c0,6.065,4.935,11,11,11s11-4.935,11-11S22.065,2,16,2
		c-1.754,0-3.43,0.4-4.98,1.189c-0.247,0.123-0.548,0.026-0.673-0.219c-0.125-0.246-0.027-0.547,0.219-0.673
		C12.258,1.437,14.086,1,16,1c6.617,0,12,5.383,12,12S22.617,25,16,25z"/>
	<circle fill="#FFFFFF" cx="16" cy="13" r="6.5"/>
	<circle fill="#80D8FF" cx="16" cy="13" r="5"/>
	<circle fill="#607D8B" cx="16" cy="13" r="2.5"/>
	<circle fill="#FFFFFF" cx="17.5" cy="15" r="1"/>
	<circle fill="#FFFFFF" cx="14.5" cy="11.5" r="1.5"/>
	<path fill="#455A64" d="M16,20c-3.86,0-7-3.14-7-7s3.14-7,7-7s7,3.14,7,7S19.86,20,16,20z M16,7c-3.309,0-6,2.691-6,6s2.691,6,6,6
		s6-2.691,6-6S19.309,7,16,7z"/>
	<g>
		<path fill="#455A64" d="M15.5,3.5h1H15.5z"/>
		<path fill="#455A64" d="M16.5,4h-1C15.224,4,15,3.776,15,3.5S15.224,3,15.5,3h1C16.776,3,17,3.224,17,3.5S16.776,4,16.5,4z"/>
	</g>
</g>
</svg>
