<?xml version="1.0" encoding="utf-8"?>
<!-- Generator: Adobe Illustrator 16.0.0, SVG Export Plug-In . SVG Version: 6.00 Build 0)  -->
<!DOCTYPE svg PUBLIC "-//W3C//DTD SVG 1.1//EN" "http://www.w3.org/Graphics/SVG/1.1/DTD/svg11.dtd">
<svg version="1.1" xmlns="http://www.w3.org/2000/svg" xmlns:xlink="http://www.w3.org/1999/xlink" x="0px" y="0px" width="32px"
	 height="32px" viewBox="0 0 32 32" enable-background="new 0 0 32 32" xml:space="preserve">
<g id="usability_audit_magnifier_magnifyin_glass_loup_user">
	<g>
		<g id="search_funds_x2C__magnifying_glass_x2C__magnifier_x2C__loupe_3_">
			<g id="analysis_1_">
				<g>
					<g>
						<g>
							<g>
								<path fill="#455A64" d="M21.011,21.01c-0.195,0.196-0.195,0.512,0,0.708l2.414,2.414c0.195,0.195,0.512,0.195,0.707,0
									s0.195-0.512,0-0.707l-2.414-2.415C21.522,20.814,21.206,20.814,21.011,21.01z"/>
							</g>
						</g>
						<g>
							<path fill="#FF8A80" d="M29.914,27.086l-3.5-3.5c-0.756-0.756-2.072-0.756-2.828,0C23.208,23.964,23,24.466,23,25
								s0.208,1.036,0.586,1.414l3.5,3.5c0.378,0.378,0.88,0.586,1.414,0.586s1.036-0.208,1.414-0.586S30.5,29.034,30.5,28.5
								S30.292,27.464,29.914,27.086z"/>
							<path fill="#E67C73" d="M30.414,28.414C30.036,28.792,29.534,29,29,29s-1.036-0.208-1.414-0.586l-4-4
								c-0.125-0.124-0.223-0.266-0.309-0.414C23.102,24.302,23,24.642,23,25c0,0.534,0.208,1.036,0.586,1.414l3.5,3.5
								c0.378,0.378,0.88,0.586,1.414,0.586s1.036-0.208,1.414-0.586S30.5,29.034,30.5,28.5c0-0.058-0.012-0.113-0.017-0.17
								C30.459,28.357,30.44,28.388,30.414,28.414z"/>
							<path fill="#455A64" d="M28.5,31c-0.667,0-1.295-0.26-1.768-0.732l-3.5-3.5C22.76,26.295,22.5,25.667,22.5,25
								s0.26-1.295,0.732-1.768c0.906-0.907,2.629-0.907,3.535,0l3.5,3.5C30.74,27.205,31,27.833,31,28.5s-0.26,1.295-0.732,1.768
								S29.167,31,28.5,31z M25,23.519c-0.407,0-0.793,0.153-1.061,0.42C23.656,24.223,23.5,24.6,23.5,25s0.156,0.777,0.439,1.061
								l3.5,3.5c0.567,0.566,1.554,0.566,2.121,0C29.844,29.277,30,28.9,30,28.5s-0.156-0.777-0.439-1.061l-3.5-3.5
								C25.793,23.672,25.407,23.519,25,23.519z"/>
							<path fill="#FFAFA9" d="M28.254,26.547l-2.5-2.5c-0.195-0.195-0.512-0.195-0.707,0s-0.195,0.512,0,0.707l2.5,2.5
								c0.098,0.098,0.225,0.146,0.354,0.146c0.127,0,0.256-0.049,0.354-0.146C28.449,27.059,28.449,26.742,28.254,26.547z"/>
						</g>
						<circle fill="#ECEFF1" cx="13" cy="13" r="11.5"/>
						<path fill="#FFFFFF" d="M4,15C4,8.923,8.924,4,15,4c3.255,0,6.171,1.422,8.185,3.668C21.263,4.003,17.427,1.5,13,1.5
							C6.647,1.5,1.5,6.646,1.5,13c0,4.428,2.503,8.263,6.168,10.185C5.421,21.171,4,18.256,4,15z"/>
						<path fill="#455A64" d="M13,25C6.383,25,1,19.617,1,13S6.383,1,13,1s12,5.383,12,12S19.617,25,13,25z M13,2
							C6.935,2,2,6.935,2,13s4.935,11,11,11s11-4.935,11-11S19.065,2,13,2z"/>
					</g>
				</g>
			</g>
		</g>
	</g>
	<g id="Peer_to_Peer_2_">
		<g>
			<g>
				<g>
					<g>
						<g>
							<g>
								<g>
									<g>
										<circle fill="#FFFFFF" cx="13" cy="13.001" r="7.5"/>
									</g>
								</g>
							</g>
						</g>
					</g>
				</g>
				<g>
					<g>
						<g>
							<g>
								<g>
									<g>
										<path fill="#FFF5A2" d="M20.475,13.51c-0.254-3.635-3.275-6.509-6.975-6.509c-3.865,0-7,3.134-7,7
											c0,2.118,0.945,4.012,2.432,5.296c1.172,0.76,2.567,1.205,4.068,1.205C16.969,20.502,20.211,17.414,20.475,13.51z"/>
									</g>
								</g>
							</g>
						</g>
					</g>
				</g>
				<g>
					<g>
						<g>
							<g>
								<g>
									<g>
										<path fill="#FFE0B2" d="M17.042,16.703L14.5,15.79v-0.8c0.604-0.457,1-1.174,1-1.989v-1c0-1.381,0-3-2.5-3
											s-2.5,1.619-2.5,3v1c0,0.815,0.396,1.532,1,1.989v0.8l-2.542,0.913c-0.322,0.097-0.594,0.354-0.766,0.662
											c1.189,1.309,2.899,2.137,4.808,2.137s3.618-0.828,4.808-2.137C17.636,17.058,17.364,16.8,17.042,16.703z"/>
									</g>
								</g>
							</g>
						</g>
					</g>
				</g>
				<g>
					<g>
						<g>
							<g>
								<g>
									<path fill="#E6CAA0" d="M17.042,16.703L14.5,15.79v-0.8c0.604-0.457,1-1.174,1-1.989v-1c0-1.381,0-3-2.5-3
										c-0.282,0-0.527,0.023-0.75,0.062C13.996,9.365,14,10.775,14,12.001v1c0,0.815-0.249,1.989-1,1.989
										c-1.28,0-1.249-0.334-1.249-0.334L11.5,15.79l-2.542,0.913c-0.322,0.097-0.594,0.354-0.766,0.662
										c1.189,1.309,2.899,2.137,4.808,2.137s3.618-0.828,4.808-2.137C17.636,17.058,17.364,16.8,17.042,16.703z"/>
								</g>
							</g>
						</g>
					</g>
				</g>
				<g>
					<g>
						<g>
							<g>
								<g>
									<g>
										<path fill="#1AD2A4" d="M17.042,16.703L14.5,15.79L13,17.001l-1.5-1.211l-2.542,0.913
											c-0.322,0.097-1.181,1.011-1.353,1.318c1.189,1.309,3.509,2.5,5.416,2.5c1.908,0,4.165-1.004,5.354-2.313
											C18.204,17.901,17.364,16.8,17.042,16.703z"/>
									</g>
								</g>
							</g>
						</g>
					</g>
				</g>
			</g>
			<g>
				<g>
					<g>
						<g>
							<g>
								<g>
									<path fill="#455A64" d="M13,21.001c-2.217,0-4.281-0.893-5.813-2.514c-0.145-0.153-0.178-0.38-0.083-0.567
										c0.215-0.429,0.942-1.448,1.706-1.685L11,15.448v-0.224c-0.639-0.57-1-1.367-1-2.225v-0.5c0-0.141-0.004-0.291-0.009-0.444
										c-0.026-0.896-0.06-2.011,0.686-2.778C11.185,8.755,11.944,8.5,13,8.5s1.815,0.255,2.323,0.777
										c0.745,0.768,0.712,1.883,0.686,2.778C16.004,12.209,16,12.359,16,12.5V13c0,0.857-0.361,1.654-1,2.225v0.224l2.211,0.794
										c0.759,0.242,1.502,1.314,1.684,1.677c0.095,0.188,0.062,0.415-0.082,0.568C17.281,20.108,15.218,21.001,13,21.001z
										 M8.182,18.068c1.308,1.249,3.005,1.933,4.818,1.933s3.51-0.683,4.817-1.931c-0.261-0.369-0.664-0.797-0.927-0.881
										l-2.56-0.919C14.133,16.199,14,16.011,14,15.8v-0.811c0-0.157,0.073-0.304,0.199-0.399C14.708,14.205,15,13.626,15,13v-0.5
										c0-0.15,0.004-0.31,0.01-0.475c0.021-0.744,0.047-1.588-0.404-2.051C14.301,9.66,13.76,9.5,13,9.5s-1.301,0.16-1.605,0.475
										c-0.451,0.463-0.426,1.307-0.404,2.051C10.996,12.19,11,12.35,11,12.5V13c0,0.626,0.292,1.205,0.801,1.59
										C11.927,14.686,12,14.832,12,14.989V15.8c0,0.211-0.133,0.399-0.331,0.471l-2.542,0.913
										C8.84,17.272,8.438,17.699,8.182,18.068z"/>
								</g>
							</g>
						</g>
					</g>
				</g>
			</g>
			<g>
				<g>
					<g>
						<g>
							<g>
								<g>
									<path fill="#455A64" d="M6.253,16.75c-0.187,0-0.364-0.104-0.45-0.283C5.27,15.363,5,14.197,5,13c0-4.411,3.589-8,8-8
										s8,3.589,8,8c0,1.215-0.266,2.381-0.787,3.467c-0.121,0.249-0.418,0.354-0.668,0.233c-0.249-0.12-0.354-0.419-0.234-0.667
										C19.768,15.083,20,14.063,20,13c0-3.859-3.141-7-7-7s-7,3.141-7,7c0,1.046,0.236,2.066,0.703,3.033
										C6.822,16.281,6.719,16.58,6.47,16.7C6.4,16.734,6.326,16.75,6.253,16.75z"/>
								</g>
							</g>
						</g>
					</g>
				</g>
			</g>
		</g>
	</g>
</g>
</svg>
