<svg id="Layer_1" data-name="Layer 1" xmlns="http://www.w3.org/2000/svg" viewBox="0 0 28 29.9"><defs><style>.cls-1{fill:#ffe0b2;}.cls-2{fill:#1de9b6;}.cls-3{fill:#e6caa0;}.cls-4{fill:#fff;}.cls-5,.cls-6,.cls-7{fill:none;}.cls-6,.cls-7{stroke:#000;stroke-linejoin:round;}.cls-6{stroke-linecap:round;}</style></defs><g id="Layer_1-2" data-name="Layer 1"><g id="Face_face_recognition_man_recognition" data-name="Face face recognition man recognition"><path class="cls-1" d="M20.5,16.4l.9-.3a3.1,3.1,0,0,0,2.1-2.8V11.8a.94.94,0,0,0-.88-1,1,1,0,0,0-.42.08l-1.7.6Z" transform="translate(0 0)"/><path d="M20.5,16.9a.37.37,0,0,1-.3-.1.52.52,0,0,1-.2-.4v-5a.56.56,0,0,1,.3-.5l1.7-.6a1.54,1.54,0,0,1,1.93,1,1.51,1.51,0,0,1,.07.37v1.5a3.53,3.53,0,0,1-2.4,3.3l-.9.3A.3.3,0,0,1,20.5,16.9Zm.5-5.1v4l.3-.1A2.49,2.49,0,0,0,23,13.3V11.8a.53.53,0,0,0-.53-.53.47.47,0,0,0-.17,0Z" transform="translate(0 0)"/><path class="cls-1" d="M7.5,16.4l-.9-.3a3.1,3.1,0,0,1-2.1-2.8V11.8a.94.94,0,0,1,.88-1,1,1,0,0,1,.42.08l1.7.6Z" transform="translate(0 0)"/><path d="M7.5,16.9H7.3l-.9-.3A3.53,3.53,0,0,1,4,13.3V11.8a1.52,1.52,0,0,1,1.56-1.48A1.63,1.63,0,0,1,6,10.4l1.7.6a.56.56,0,0,1,.3.5v5a.52.52,0,0,1-.2.4Zm-2-5.6a.54.54,0,0,0-.5.5v1.5a2.58,2.58,0,0,0,1.7,2.4l.3.1v-4l-1.3-.4A.3.3,0,0,0,5.5,11.3Z" transform="translate(0 0)"/><polygon class="cls-2" points="27.3 28.9 14 24.3 0.7 28.9 27.3 28.9"/><path d="M22.5,27.8h-.2l-8.3-3L5.8,27.7a.47.47,0,0,1-.3-.9l8.4-2.9h.3l8.5,3a.46.46,0,0,1,.32.55l0,.05A.84.84,0,0,1,22.5,27.8Z" transform="translate(0 0)"/><path class="cls-3" d="M17.5,28.2,14,29.5l-3.5-1.3a3,3,0,0,1-2-2.8V21.5h11v3.9A3.11,3.11,0,0,1,17.5,28.2Z" transform="translate(0 0)"/><path d="M14,29.9h-.2l-3.5-1.3A3.46,3.46,0,0,1,8,25.3V21.4a.47.47,0,0,1,.44-.5H19.5a.47.47,0,0,1,.5.44v4a3.46,3.46,0,0,1-2.3,3.3l-3.5,1.3Zm-5-8v3.4a2.77,2.77,0,0,0,1.6,2.4L14,28.9l3.4-1.2A2.49,2.49,0,0,0,19,25.3V21.9Z" transform="translate(0 0)"/><path class="cls-1" d="M14,.4h0A8,8,0,0,0,6.1,8.5h0c.1,4.8.4,9.8,1.5,11.4a15.07,15.07,0,0,0,4.6,4.5h3.6a15.07,15.07,0,0,0,4.6-4.5c1.1-1.6,1.4-6.7,1.5-11.4A8,8,0,0,0,14,.4Z" transform="translate(0 0)"/><path d="M15.8,24.9H12c-1.7-.8-3.9-3.3-4.8-4.7S5.8,15.1,5.6,8.6A8.55,8.55,0,0,1,8,2.5a8.45,8.45,0,0,1,12,0l.05,0a8.14,8.14,0,0,1,2.4,6.1c-.1,6.6-.7,10.3-1.6,11.7S17.7,24.2,16,25C15.9,24.9,15.9,24.9,15.8,24.9Zm-3.5-1h3.4A15.71,15.71,0,0,0,20,19.6c.8-1.2,1.3-4.9,1.4-11.2A7.78,7.78,0,0,0,19.3,3,7.48,7.48,0,0,0,8.72,3l0,0A8.26,8.26,0,0,0,6.6,8.5c.1,6.2.6,9.9,1.4,11.1A13.58,13.58,0,0,0,12.3,23.9Z" transform="translate(0 0)"/><path class="cls-4" d="M.5,24.9a.47.47,0,0,1,.5.44V27.9H3.5a.5.5,0,0,1,0,1H.5a.47.47,0,0,1-.5-.44V25.4A.54.54,0,0,1,.5,24.9Z" transform="translate(0 0)"/><path class="cls-4" d="M27.5,24.9a.47.47,0,0,1,.5.44V28.4a.47.47,0,0,1-.44.5H24.5a.5.5,0,0,1,0-1H27V25.4A.54.54,0,0,1,27.5,24.9Z" transform="translate(0 0)"/><path class="cls-4" d="M27.5,4.9a.47.47,0,0,1-.5-.44V1.9H24.5a.47.47,0,0,1-.5-.44V1.4a.47.47,0,0,1,.44-.5H27.5a.47.47,0,0,1,.5.44V4.4a.47.47,0,0,1-.44.5Z" transform="translate(0 0)"/><path class="cls-4" d="M.5,4.9A.47.47,0,0,1,0,4.46V1.4A.47.47,0,0,1,.44.9H3.5a.47.47,0,0,1,.5.44V1.4a.47.47,0,0,1-.44.5H1V4.4a.47.47,0,0,1-.44.5Z" transform="translate(0 0)"/></g><path class="cls-5" d="M7.52,14.43H20.68" transform="translate(0 0)"/><path class="cls-5" d="M13.81,14.43c0-.83-.09-1.5-.21-1.5" transform="translate(0 0)"/><path class="cls-5" d="M8,15.25c0-1.28,2.51-2.32,5.6-2.32" transform="translate(0 0)"/><path class="cls-5" d="M13.6,12.93c0,1.28-2,2.32-4.39,2.32" transform="translate(0 0)"/><path class="cls-5" d="M9.21,15.25A6.48,6.48,0,0,0,9,12.93" transform="translate(0 0)"/><path class="cls-5" d="M6.83,13.93c0-.55,3-1,6.77-1" transform="translate(0 0)"/><path class="cls-5" d="M13.6,12.93c0-.24,3.43-.43,7.66-.43" transform="translate(0 0)"/><path class="cls-6" d="M14.2,11.67" transform="translate(0 0)"/><path class="cls-6" d="M14.1,5.09" transform="translate(0 0)"/></g><g id="Layer_3" data-name="Layer 3"><path class="cls-2" d="M20.9,15.8c0,5.06-3,9.15-6.7,9.15-3.92-.05-7.1-4.15-7.1-9.15,3.92,0,7.1-.93,7.1-2.07C14.2,14.8,17.19,15.8,20.9,15.8Z" transform="translate(0 0)"/><path class="cls-7" d="M14.2,13.68c0,1.12-3.18,2.12-7.1,2.12" transform="translate(0 0)"/><path class="cls-7" d="M14.2,13.68c0,1.14,3,2.07,6.7,2.07" transform="translate(0 0)"/><path class="cls-6" d="M7.1,15.8c0,5.06,3.18,9.15,7.1,9.15" transform="translate(0 0)"/><path class="cls-6" d="M20.9,15.8c0,5.06-3,9.15-6.7,9.15" transform="translate(0 0)"/><line class="cls-6" x1="5.66" y1="10.33" x2="7.1" y2="16.4"/><line class="cls-6" x1="22.36" y1="10.23" x2="20.9" y2="16.4"/></g></svg>