<?xml version="1.0" encoding="utf-8"?>
<!-- Generator: Adobe Illustrator 21.1.0, SVG Export Plug-In . SVG Version: 6.00 Build 0)  -->
<svg version="1.1" id="Layer_1" xmlns="http://www.w3.org/2000/svg" xmlns:xlink="http://www.w3.org/1999/xlink" x="0px" y="0px"
	 viewBox="0 0 32 32" style="enable-background:new 0 0 32 32;" xml:space="preserve">
<style type="text/css">
	.st0{fill:#FFE0B2;}
	.st1{fill:#455A64;}
	.st2{fill:#1DE9B6;}
	.st3{fill:#E6CAA0;}
	.st4{fill:#FFFFFF;}
</style>
<g id="Face_x2C__face_recognition_x2C__man_x2C__recognition">
	<g>
		<g>
			<path class="st0" d="M22.9,17.6l0.9-0.3c1.2-0.4,2.1-1.6,2.1-2.8V13c0-0.7-0.7-1.2-1.3-0.9l-1.7,0.6V17.6z"/>
			<path class="st1" d="M22.9,18.1c-0.1,0-0.2,0-0.3-0.1c-0.1-0.1-0.2-0.2-0.2-0.4v-5c0-0.2,0.1-0.4,0.3-0.5l1.7-0.6
				c0.9-0.3,2,0.4,2,1.4v1.5c0,1.5-1,2.8-2.4,3.3l-0.9,0.3C23,18.1,22.9,18.1,22.9,18.1z M23.4,13V17l0.3-0.1c1-0.3,1.7-1.3,1.7-2.4
				V13c0-0.4-0.4-0.6-0.7-0.5L23.4,13z"/>
		</g>
		<g>
			<path class="st0" d="M9.9,17.6l-0.9-0.3c-1.2-0.4-2.1-1.6-2.1-2.8V13c0-0.7,0.7-1.2,1.3-0.9l1.7,0.6V17.6z"/>
			<path class="st1" d="M9.9,18.1c-0.1,0-0.1,0-0.2,0l-0.9-0.3c-1.4-0.5-2.4-1.8-2.4-3.3V13c0-1,1-1.7,2-1.4l1.7,0.6
				c0.2,0.1,0.3,0.3,0.3,0.5v5c0,0.2-0.1,0.3-0.2,0.4C10.1,18.1,10,18.1,9.9,18.1z M7.9,12.5c-0.2,0-0.5,0.2-0.5,0.5v1.5
				c0,1.1,0.7,2,1.7,2.4L9.4,17V13l-1.3-0.4C8,12.5,7.9,12.5,7.9,12.5z"/>
		</g>
	</g>
	<polygon class="st2" points="29.7,30.1 16.4,25.5 3.1,30.1 	"/>
	<path class="st1" d="M24.9,29c-0.1,0-0.1,0-0.2,0L16.4,26l-8.2,2.9c-0.3,0.1-0.5,0-0.6-0.3c-0.1-0.3,0-0.5,0.3-0.6l8.4-2.9
		c0.1,0,0.2,0,0.3,0l8.5,3c0.3,0.1,0.4,0.4,0.3,0.6C25.3,28.8,25.1,29,24.9,29z"/>
	<g>
		<path class="st3" d="M19.9,29.4l-3.5,1.3l-3.5-1.3c-1.2-0.4-2-1.6-2-2.8v-3.9h11v3.9C21.9,27.8,21.1,28.9,19.9,29.4z"/>
		<path class="st1" d="M16.4,31.1c-0.1,0-0.1,0-0.2,0l-3.5-1.3c-1.4-0.5-2.3-1.8-2.3-3.3v-3.9c0-0.3,0.2-0.5,0.5-0.5h11
			c0.3,0,0.5,0.2,0.5,0.5v3.9c0,1.5-0.9,2.8-2.3,3.3l-3.5,1.3C16.5,31.1,16.5,31.1,16.4,31.1z M11.4,23.1v3.4c0,1,0.7,2,1.6,2.4
			l3.4,1.2l3.4-1.2c1-0.4,1.6-1.3,1.6-2.4v-3.4H11.4z"/>
	</g>
	<g>
		<path class="st0" d="M16.4,1.6L16.4,1.6c-4.4,0-8,3.7-7.9,8.1c0.1,4.8,0.4,9.8,1.5,11.4c1,1.5,3.1,3.8,4.6,4.5h3.6
			c1.5-0.7,3.6-3,4.6-4.5c1.1-1.6,1.4-6.7,1.5-11.4C24.4,5.3,20.8,1.6,16.4,1.6z"/>
		<path class="st1" d="M18.2,26.1h-3.6c-0.1,0-0.1,0-0.2,0c-1.7-0.8-3.9-3.3-4.8-4.7C8.7,20,8.2,16.3,8,9.8C8,7.5,8.8,5.3,10.4,3.7
			c1.6-1.6,3.7-2.5,6-2.5c2.3,0,4.4,0.9,6,2.5c1.6,1.6,2.5,3.8,2.4,6.1c-0.1,6.6-0.7,10.3-1.6,11.7c-1,1.4-3.1,3.9-4.8,4.7
			C18.3,26.1,18.3,26.1,18.2,26.1z M14.7,25.1h3.4c1.3-0.7,3.2-2.7,4.3-4.3c0.8-1.2,1.3-4.9,1.4-11.2c0-2-0.7-3.9-2.1-5.4
			c-1.4-1.4-3.3-2.2-5.3-2.2c-2,0-3.9,0.8-5.3,2.2C9.7,5.8,9,7.7,9,9.7c0.1,6.2,0.6,9.9,1.4,11.1C11.4,22.4,13.4,24.5,14.7,25.1z"/>
	</g>
	<g>
		<path class="st4" d="M2.9,26.1c0.3,0,0.5,0.2,0.5,0.5v2.5h2.5c0.3,0,0.5,0.2,0.5,0.5s-0.2,0.5-0.5,0.5h-3c-0.3,0-0.5-0.2-0.5-0.5
			v-3C2.4,26.4,2.6,26.1,2.9,26.1z"/>
	</g>
	<g>
		<path class="st4" d="M29.9,26.1c0.3,0,0.5,0.2,0.5,0.5v3c0,0.3-0.2,0.5-0.5,0.5h-3c-0.3,0-0.5-0.2-0.5-0.5s0.2-0.5,0.5-0.5h2.5
			v-2.5C29.4,26.4,29.6,26.1,29.9,26.1z"/>
	</g>
	<g>
		<path class="st4" d="M29.9,6.1c-0.3,0-0.5-0.2-0.5-0.5V3.1h-2.5c-0.3,0-0.5-0.2-0.5-0.5s0.2-0.5,0.5-0.5h3c0.3,0,0.5,0.2,0.5,0.5
			v3C30.4,5.9,30.2,6.1,29.9,6.1z"/>
	</g>
	<g>
		<path class="st4" d="M2.9,6.1c-0.3,0-0.5-0.2-0.5-0.5v-3c0-0.3,0.2-0.5,0.5-0.5h3c0.3,0,0.5,0.2,0.5,0.5S6.2,3.1,5.9,3.1H3.4v2.5
			C3.4,5.9,3.2,6.1,2.9,6.1z"/>
	</g>
</g>
</svg>
