<?xml version="1.0" encoding="utf-8"?>
<!-- Generator: Adobe Illustrator 16.0.0, SVG Export Plug-In . SVG Version: 6.00 Build 0)  -->
<!DOCTYPE svg PUBLIC "-//W3C//DTD SVG 1.1//EN" "http://www.w3.org/Graphics/SVG/1.1/DTD/svg11.dtd">
<svg version="1.1" xmlns="http://www.w3.org/2000/svg" xmlns:xlink="http://www.w3.org/1999/xlink" x="0px" y="0px" width="32px"
	 height="32px" viewBox="0 0 32 32" enable-background="new 0 0 32 32" xml:space="preserve">
<g id="translator_x2C__translate_x2C__language">
	<path fill="#FFF176" d="M24.5,17.5l3,4v-4h2c0.553,0,1-0.447,1-1v-14c0-0.553-0.447-1-1-1h-16c-0.553,0-1,0.447-1,1v14
		c0,0.553,0.447,1,1,1H24.5z"/>
	<path fill="#455A64" d="M27.5,22c-0.154,0-0.304-0.071-0.4-0.2L24.25,18H21.5c-0.276,0-0.5-0.224-0.5-0.5s0.224-0.5,0.5-0.5h3
		c0.157,0,0.306,0.074,0.4,0.2L27,20v-2.5c0-0.276,0.224-0.5,0.5-0.5h2c0.276,0,0.5-0.225,0.5-0.5v-14C30,2.225,29.776,2,29.5,2h-16
		C13.224,2,13,2.225,13,2.5v10c0,0.276-0.224,0.5-0.5,0.5S12,12.776,12,12.5v-10C12,1.673,12.673,1,13.5,1h16
		C30.327,1,31,1.673,31,2.5v14c0,0.827-0.673,1.5-1.5,1.5H28v3.5c0,0.215-0.138,0.406-0.342,0.475C27.606,21.991,27.553,22,27.5,22z
		"/>
	<path fill="#80D8FF" d="M7.5,14.5l-3-4v4h-2c-0.553,0-1,0.447-1,1v14c0,0.553,0.447,1,1,1h16c0.553,0,1-0.447,1-1v-14
		c0-0.553-0.447-1-1-1H7.5z"/>
	<path fill="#65F0CD" d="M18.5,14.5h-6v2c0,0.553,0.447,1,1,1h6v-2C19.5,14.947,19.053,14.5,18.5,14.5L18.5,14.5z"/>
	<path fill="#455A64" d="M18.5,31h-16C1.673,31,1,30.327,1,29.5v-14C1,14.673,1.673,14,2.5,14H4v-3.5
		c0-0.215,0.138-0.406,0.342-0.475C4.547,9.961,4.771,10.027,4.9,10.2L7.75,14h2.75c0.276,0,0.5,0.224,0.5,0.5S10.776,15,10.5,15h-3
		c-0.157,0-0.306-0.074-0.4-0.2L5,12v2.5C5,14.776,4.776,15,4.5,15h-2C2.224,15,2,15.225,2,15.5v14C2,29.775,2.224,30,2.5,30h16
		c0.276,0,0.5-0.225,0.5-0.5v-14c0-0.275-0.224-0.5-0.5-0.5h-3.958c-0.276,0-0.5-0.224-0.5-0.5s0.224-0.5,0.5-0.5H18.5
		c0.827,0,1.5,0.673,1.5,1.5v14C20,30.327,19.327,31,18.5,31z"/>
	<g>
		<path fill="#455A64" d="M20.5,13c-0.04,0-0.081-0.005-0.122-0.015c-0.268-0.067-0.431-0.339-0.364-0.606l2-8
			c0.066-0.269,0.338-0.431,0.606-0.364c0.268,0.067,0.431,0.339,0.364,0.606l-2,8C20.928,12.849,20.725,13,20.5,13z"/>
		<path fill="#455A64" d="M26.5,13c-0.224,0-0.428-0.151-0.484-0.379l-2-8c-0.067-0.268,0.096-0.539,0.364-0.606
			c0.266-0.065,0.539,0.096,0.606,0.364l2,8c0.067,0.268-0.096,0.539-0.364,0.606C26.581,12.995,26.54,13,26.5,13z"/>
		<path fill="#455A64" d="M26,11h-5c-0.276,0-0.5-0.224-0.5-0.5S20.724,10,21,10h5c0.276,0,0.5,0.224,0.5,0.5S26.276,11,26,11z"/>
		<path fill="#455A64" d="M24.5,5h-2C22.224,5,22,4.776,22,4.5S22.224,4,22.5,4h2C24.776,4,25,4.224,25,4.5S24.776,5,24.5,5z"/>
	</g>
	<g>
		<path fill="#455A64" d="M4.5,28c-0.232,0-0.441-0.163-0.489-0.399c-0.056-0.271,0.119-0.535,0.389-0.591
			c2.685-0.551,5.894-2.593,6.101-6.536c0.014-0.275,0.232-0.5,0.526-0.473c0.275,0.015,0.487,0.249,0.473,0.525
			c-0.237,4.513-3.865,6.841-6.899,7.464C4.566,27.997,4.533,28,4.5,28z"/>
		<path fill="#455A64" d="M12.5,27c-0.117,0-0.235-0.041-0.33-0.124c-1.616-1.42-5.793-2.89-5.835-2.904
			c-0.133-0.046-0.241-0.147-0.296-0.278c-0.055-0.13-0.052-0.278,0.008-0.406C6.58,22.154,7.968,18.904,8,17.488
			C8.006,17.213,8.234,17.004,8.511,17C8.788,17.007,9.006,17.235,9,17.512c-0.036,1.546-1.293,4.521-1.821,5.704
			c1.212,0.454,4.231,1.662,5.651,2.908c0.208,0.183,0.228,0.498,0.045,0.706C12.777,26.942,12.639,27,12.5,27z"/>
		<path fill="#455A64" d="M13,21H4c-0.276,0-0.5-0.224-0.5-0.5S3.724,20,4,20h8.191l-0.138-0.276
			c-0.124-0.247-0.023-0.547,0.224-0.671c0.248-0.124,0.547-0.023,0.671,0.224l0.5,1c0.078,0.155,0.069,0.339-0.022,0.486
			S13.173,21,13,21z"/>
	</g>
	<path fill="#455A64" d="M17.5,18h-4c-0.827,0-1.5-0.673-1.5-1.5v-4c0-0.276,0.224-0.5,0.5-0.5s0.5,0.224,0.5,0.5v4
		c0,0.275,0.224,0.5,0.5,0.5h4c0.276,0,0.5,0.224,0.5,0.5S17.776,18,17.5,18z"/>
</g>
</svg>
