<?xml version="1.0" encoding="utf-8"?>
<!-- Generator: Adobe Illustrator 16.0.0, SVG Export Plug-In . SVG Version: 6.00 Build 0)  -->
<!DOCTYPE svg PUBLIC "-//W3C//DTD SVG 1.1//EN" "http://www.w3.org/Graphics/SVG/1.1/DTD/svg11.dtd">
<svg version="1.1" xmlns="http://www.w3.org/2000/svg" xmlns:xlink="http://www.w3.org/1999/xlink" x="0px" y="0px" width="32px"
	 height="32px" viewBox="0 0 32 32" enable-background="new 0 0 32 32" xml:space="preserve">
<g id="private_and_secure_1_">
	<g>
		<g>
			<g>
				<g>
					<g>
						<g>
							<path fill="#FFFFFF" d="M22.249,26.632L16,30.5l-6.248-3.868c-2.349-1.453-4.895-3.59-4.895-7.63L4.5,6.5l11.5-5l11.5,5
								l-0.357,12.502C27.143,23.083,24.597,25.179,22.249,26.632z"/>
						</g>
					</g>
				</g>
				<g>
					<g>
						<g>
							<path fill="#A9E4FF" d="M5.996,8.317L5.857,18.988c0,4.119,2.722,6.021,4.657,7.219L16,29.912l5.986-3.705
								c1.935-1.198,4.656-3.1,4.656-7.205L26.99,6.817L16,2.049L6.885,6.832C6.401,7.101,6.004,7.766,5.996,8.317z"/>
						</g>
					</g>
				</g>
				<g>
					<g>
						<g>
							<path fill="#80D8FF" d="M16,2.049v27.863l5.986-3.705c1.935-1.198,4.656-3.1,4.656-7.205L26.99,6.817L16,2.049z"/>
						</g>
					</g>
				</g>
			</g>
		</g>
		<g>
			<g>
				<g>
					<path fill="#455A64" d="M16,31c-0.091,0-0.183-0.025-0.263-0.075l-6.248-3.868c-2.389-1.478-5.131-3.729-5.131-8.055
						L4.1,10.015C4.092,9.738,4.309,9.508,4.585,9.5C4.867,9.497,5.091,9.71,5.1,9.985l0.258,9.002c0,3.824,2.354,5.794,4.658,7.22
						L16,29.912l5.986-3.705c2.303-1.426,4.657-3.396,4.657-7.205l0.348-12.179L16,2.045L5.009,6.824l0.034,1.161
						C5.051,8.262,4.833,8.492,4.558,8.5C4.315,8.498,4.052,8.292,4.043,8.015L4,6.514C3.995,6.31,4.113,6.123,4.301,6.041l11.5-5
						c0.127-0.055,0.271-0.055,0.398,0l11.5,5c0.188,0.082,0.307,0.27,0.301,0.474l-0.357,12.502c0,4.311-2.742,6.562-5.13,8.04
						l-6.249,3.868C16.183,30.975,16.091,31,16,31z"/>
				</g>
			</g>
		</g>
	</g>
	<g>
		<g>
			<g>
				<g>
					<g>
						<g>
							<g>
								<circle fill="#FFFFFF" cx="16" cy="15.001" r="7.5"/>
							</g>
						</g>
					</g>
				</g>
			</g>
			<g>
				<g>
					<g>
						<g>
							<g>
								<path fill="#F2F4F5" d="M23.475,15.511c-0.254-3.636-3.275-6.51-6.975-6.51c-3.865,0-7,3.134-7,7
									c0,2.117,0.945,4.012,2.432,5.296c1.172,0.76,2.567,1.205,4.068,1.205C19.969,22.502,23.211,19.414,23.475,15.511z"/>
							</g>
						</g>
					</g>
				</g>
			</g>
			<g>
				<g>
					<g>
						<g>
							<g>
								<path fill="#FFE0B2" d="M20.042,18.703L17.5,17.79v-0.801c0.604-0.456,1-1.173,1-1.988v-1c0-1.381,0-3-2.5-3
									s-2.5,1.619-2.5,3v1c0,0.815,0.396,1.532,1,1.988v0.801l-2.542,0.913c-0.322,0.097-0.594,0.354-0.766,0.661
									c1.189,1.311,2.899,2.138,4.808,2.138s3.618-0.827,4.808-2.138C20.636,19.058,20.364,18.8,20.042,18.703z"/>
							</g>
						</g>
					</g>
				</g>
			</g>
			<g>
				<g>
					<g>
						<g>
							<path fill="#E6CAA0" d="M20.042,18.703L17.5,17.79v-0.801c0.604-0.456,1-1.173,1-1.988v-1c0-1.381,0-3-2.5-3
								c-0.282,0-0.527,0.023-0.75,0.062c1.746,0.303,1.75,1.713,1.75,2.938v1c0,0.815-0.249,1.988-1,1.988
								c-1.28,0-1.249-0.333-1.249-0.333L14.5,17.79l-2.542,0.913c-0.322,0.097-0.594,0.354-0.766,0.661
								c1.189,1.311,2.899,2.138,4.808,2.138s3.618-0.827,4.808-2.138C20.636,19.058,20.364,18.8,20.042,18.703z"/>
						</g>
					</g>
				</g>
			</g>
			<g>
				<g>
					<g>
						<g>
							<g>
								<path fill="#1AD2A4" d="M20.042,18.703L17.5,17.79L16,19.001l-1.5-1.211l-2.542,0.913c-0.322,0.097-1.181,1.011-1.353,1.317
									c1.189,1.31,3.509,2.501,5.416,2.501c1.908,0,4.165-1.004,5.354-2.313C21.204,19.901,20.364,18.8,20.042,18.703z"/>
							</g>
						</g>
					</g>
				</g>
			</g>
		</g>
		<g>
			<g>
				<g>
					<g>
						<g>
							<path fill="#455A64" d="M16,23.001c-2.217,0-4.281-0.893-5.813-2.514c-0.145-0.152-0.178-0.379-0.083-0.567
								c0.215-0.429,0.942-1.448,1.706-1.685L14,17.448v-0.223c-0.639-0.571-1-1.369-1-2.226v-0.5c0-0.141-0.004-0.291-0.009-0.444
								c-0.026-0.896-0.06-2.011,0.686-2.778C14.185,10.755,14.944,10.5,16,10.5s1.815,0.255,2.323,0.777
								c0.745,0.768,0.712,1.883,0.686,2.778C19.004,14.209,19,14.359,19,14.5V15c0,0.856-0.361,1.654-1,2.226v0.223l2.211,0.794
								c0.759,0.241,1.502,1.314,1.684,1.677c0.095,0.188,0.062,0.416-0.082,0.568C20.281,22.108,18.218,23.001,16,23.001z
								 M11.182,20.068c1.308,1.249,3.005,1.933,4.818,1.933s3.51-0.683,4.817-1.932c-0.261-0.369-0.664-0.796-0.927-0.88
								l-2.56-0.919C17.133,18.199,17,18.011,17,17.8v-0.811c0-0.156,0.073-0.305,0.199-0.398C17.708,16.206,18,15.626,18,15v-0.5
								c0-0.15,0.004-0.31,0.01-0.475c0.021-0.744,0.047-1.588-0.404-2.051C17.301,11.66,16.76,11.5,16,11.5
								s-1.301,0.16-1.605,0.475c-0.451,0.463-0.426,1.307-0.404,2.051C13.996,14.19,14,14.35,14,14.5V15
								c0,0.626,0.292,1.206,0.801,1.591C14.927,16.685,15,16.833,15,16.989V17.8c0,0.211-0.133,0.399-0.331,0.471l-2.542,0.913
								C11.84,19.272,11.438,19.7,11.182,20.068z"/>
						</g>
					</g>
				</g>
			</g>
		</g>
		<g>
			<g>
				<g>
					<g>
						<g>
							<path fill="#455A64" d="M9.253,18.75c-0.187,0-0.364-0.104-0.45-0.282C8.27,17.364,8,16.198,8,15c0-4.411,3.589-8,8-8
								s8,3.589,8,8c0,1.214-0.266,2.38-0.787,3.466c-0.121,0.25-0.418,0.354-0.668,0.234c-0.249-0.12-0.354-0.419-0.234-0.668
								C22.768,17.083,23,16.063,23,15c0-3.859-3.141-7-7-7s-7,3.141-7,7c0,1.046,0.236,2.065,0.703,3.032
								c0.119,0.249,0.016,0.549-0.233,0.668C9.4,18.733,9.326,18.75,9.253,18.75z"/>
						</g>
					</g>
				</g>
			</g>
		</g>
	</g>
</g>
</svg>
