<?xml version="1.0" encoding="utf-8"?>
<!-- Generator: Adobe Illustrator 16.0.0, SVG Export Plug-In . SVG Version: 6.00 Build 0)  -->
<!DOCTYPE svg PUBLIC "-//W3C//DTD SVG 1.1//EN" "http://www.w3.org/Graphics/SVG/1.1/DTD/svg11.dtd">
<svg version="1.1" xmlns="http://www.w3.org/2000/svg" xmlns:xlink="http://www.w3.org/1999/xlink" x="0px" y="0px" width="32px"
	 height="32px" viewBox="0 0 32 32" enable-background="new 0 0 32 32" xml:space="preserve">
<g id="Class_x2C__lecture_x2C__lesson_x2C__school_children_x2C__teacher">
	<g>
		<g>
			<path fill="#E6CAA0" d="M14.5,25.488v3.23h3v-3.23c0.604-0.456,1-1.173,1-1.988v-1c0-1.381,0-3-2.5-3s-2.5,1.619-2.5,3v1
				C13.5,24.315,13.896,25.032,14.5,25.488z"/>
		</g>
		<g>
			<g>
				<path fill="#FFFFFF" d="M11.5,31v-2c0-0.77,0.577-1.545,1.314-1.767l1.686-0.757L16,27l1.5-0.525l1.746,0.781
					C19.923,27.455,20.5,28.23,20.5,29v2H11.5z"/>
			</g>
		</g>
		<path fill="#80D8FF" d="M12.5,31h8v-2c0-0.77-0.577-1.545-1.254-1.744L17.5,26.475L16,27l-1.104-0.252l-1.082,0.486
			C13.077,27.455,12.5,28.23,12.5,29V31z"/>
		<path fill="#455A64" d="M20.5,31c-0.276,0-0.5-0.224-0.5-0.5V29c0-0.533-0.418-1.124-0.896-1.265l-1.809-0.804
			C17.116,26.851,17,26.672,17,26.475v-0.986c0-0.157,0.073-0.304,0.198-0.399C17.708,24.705,18,24.125,18,23.5v-1
			c0-1.55-0.097-2.5-2-2.5s-2,0.95-2,2.5v1c0,0.625,0.292,1.205,0.802,1.589C14.927,25.184,15,25.332,15,25.488v0.988
			c0,0.197-0.115,0.375-0.295,0.456l-1.686,0.757C12.43,27.871,12,28.449,12,29v1.5c0,0.276-0.224,0.5-0.5,0.5S11,30.776,11,30.5V29
			c0-0.994,0.718-1.959,1.671-2.246L14,26.154v-0.43c-0.639-0.57-1-1.368-1-2.224v-1c0-1.309,0-3.5,3-3.5s3,2.191,3,3.5v1
			c0,0.856-0.361,1.654-1,2.224v0.426l1.45,0.649C20.292,27.042,21,28.019,21,29v1.5C21,30.776,20.776,31,20.5,31z"/>
		<path fill="#455A64" d="M16,27.371c-0.414,0-0.828-0.104-1.206-0.312l-0.534-0.293c-0.242-0.133-0.331-0.437-0.198-0.679
			c0.133-0.243,0.439-0.329,0.679-0.198l0.535,0.294c0.454,0.25,0.993,0.25,1.447,0l0.536-0.296
			c0.239-0.132,0.545-0.045,0.679,0.196s0.046,0.546-0.196,0.68l-0.536,0.296C16.828,27.267,16.414,27.371,16,27.371z"/>
	</g>
	<g>
		<g>
			<path fill="#E6CAA0" d="M24.5,23.488v3.23h3v-3.23c0.604-0.456,1-1.173,1-1.988v-1c0-1.381,0-3-2.5-3s-2.5,1.619-2.5,3v1
				C23.5,22.315,23.896,23.032,24.5,23.488z"/>
		</g>
		<g>
			<g>
				<path fill="#FFFFFF" d="M21.5,29v-2c0-0.77,0.577-1.545,1.314-1.767l1.686-0.757L26,25l1.5-0.525l1.746,0.781
					C29.923,25.455,30.5,26.23,30.5,27v2H21.5z"/>
			</g>
		</g>
		<path fill="#FFF176" d="M22.5,29h8v-2c0-0.77-0.577-1.545-1.254-1.744L27.5,24.475L26,25l-1.104-0.252l-1.082,0.486
			C23.077,25.455,22.5,26.23,22.5,27V29z"/>
		<path fill="#455A64" d="M30.5,29c-0.276,0-0.5-0.224-0.5-0.5V27c0-0.533-0.418-1.124-0.896-1.265l-1.809-0.804
			C27.116,24.851,27,24.672,27,24.475v-0.986c0-0.157,0.073-0.304,0.198-0.399C27.708,22.705,28,22.125,28,21.5v-1
			c0-1.55-0.097-2.5-2-2.5s-2,0.95-2,2.5v1c0,0.625,0.292,1.205,0.802,1.589C24.927,23.184,25,23.332,25,23.488v0.988
			c0,0.197-0.115,0.375-0.295,0.456l-1.686,0.757c-0.456,0.142-0.816,0.51-0.958,0.94c-0.086,0.263-0.369,0.406-0.631,0.319
			c-0.262-0.086-0.405-0.369-0.318-0.631c0.242-0.738,0.854-1.352,1.559-1.564L24,24.154v-0.43c-0.639-0.57-1-1.368-1-2.224v-1
			c0-1.309,0-3.5,3-3.5s3,2.191,3,3.5v1c0,0.856-0.361,1.654-1,2.224v0.426l1.45,0.649C30.292,25.042,31,26.019,31,27v1.5
			C31,28.776,30.776,29,30.5,29z"/>
		<path fill="#455A64" d="M26,25.371c-0.414,0-0.828-0.104-1.206-0.312l-0.534-0.293c-0.242-0.133-0.331-0.437-0.198-0.679
			c0.134-0.243,0.438-0.328,0.679-0.198l0.535,0.294c0.455,0.25,0.994,0.25,1.447,0l0.536-0.296c0.24-0.132,0.546-0.046,0.679,0.196
			c0.134,0.242,0.046,0.546-0.196,0.68l-0.536,0.296C26.828,25.267,26.414,25.371,26,25.371z"/>
	</g>
	<g>
		<g>
			<path fill="#E6CAA0" d="M4.5,23.488v3.23h3v-3.23c0.604-0.456,1-1.173,1-1.988v-1c0-1.381,0-3-2.5-3s-2.5,1.619-2.5,3v1
				C3.5,22.315,3.896,23.032,4.5,23.488z"/>
		</g>
		<g>
			<g>
				<path fill="#FFFFFF" d="M1.5,29v-2c0-0.77,0.577-1.545,1.314-1.767L4.5,24.477L6,25l1.5-0.525l1.746,0.781
					C9.923,25.455,10.5,26.23,10.5,27v2H1.5z"/>
			</g>
		</g>
		<path fill="#FF8A80" d="M9.246,25.256l-1.745-0.78H7.5l-0.003,0.002L6,25l-1.193-0.212l-0.992,0.445
			C3.077,25.455,2.5,26.23,2.5,27v2h8v-2C10.5,26.23,9.923,25.455,9.246,25.256z"/>
		<g>
			<path fill="#455A64" d="M1.5,29C1.224,29,1,28.776,1,28.5V27c0-0.994,0.718-1.959,1.671-2.246L4,24.154v-0.43
				c-0.639-0.57-1-1.368-1-2.224v-1C3,19.191,3,17,6,17s3,2.191,3,3.5v1c0,0.856-0.361,1.654-1,2.224v0.426l1.45,0.649
				c0.608,0.175,1.197,0.779,1.438,1.518c0.085,0.262-0.058,0.544-0.32,0.63c-0.267,0.085-0.545-0.058-0.631-0.321
				c-0.137-0.42-0.479-0.787-0.833-0.891l-1.809-0.804C7.116,24.851,7,24.672,7,24.475v-0.986c0-0.157,0.073-0.304,0.198-0.399
				C7.708,22.705,8,22.125,8,21.5v-1C8,18.95,7.903,18,6,18s-2,0.95-2,2.5v1c0,0.625,0.292,1.205,0.802,1.589
				C4.927,23.184,5,23.332,5,23.488v0.988c0,0.197-0.115,0.375-0.295,0.456L3.02,25.689C2.43,25.871,2,26.449,2,27v1.5
				C2,28.776,1.776,29,1.5,29z"/>
		</g>
		<path fill="#455A64" d="M6,25.371c-0.414,0-0.828-0.104-1.206-0.312L4.26,24.766c-0.242-0.133-0.331-0.437-0.198-0.679
			c0.133-0.243,0.439-0.328,0.679-0.198l0.535,0.294c0.454,0.25,0.993,0.25,1.447,0l0.536-0.296
			c0.239-0.132,0.546-0.046,0.679,0.196c0.134,0.242,0.046,0.546-0.196,0.68L7.205,25.06C6.828,25.267,6.414,25.371,6,25.371z"/>
	</g>
	<g>
		<path fill="#FFE0B2" d="M17.5,8.674V7.488c0.603-0.456,1-1.172,1-1.988v-1c0-1.381,0-3-2.5-3s-2.5,1.619-2.5,3v1
			c0,0.816,0.396,1.532,1,1.988v1.188L17.5,8.674z"/>
		<path fill="#E6CAA0" d="M18.781,10.512V8.95L17.5,8.489v-1c0.604-0.456,1-1.173,1-1.989v-1c0-1.381,0-3-2.5-3
			c-0.28,0-0.527,0.024-0.75,0.062C16.996,1.865,17,3.276,17,4.5v1c0,0.816-0.249,1.989-1,1.989c-1.28,0-1.249-0.333-1.249-0.333
			L14.5,8.489L13.438,8.87v1.642H18.781z"/>
		<path fill="#1AD2A4" d="M10.5,13.006v-1.309c0-0.769,0.577-1.545,1.314-1.766L14.5,8.775L16,9.6l1.5-0.827l2.746,1.18
			c0.677,0.199,1.254,0.975,1.254,1.744v1.309H10.5z"/>
		<path fill="#1DE9B6" d="M19,12c0-1.362-0.913-2.499-2.156-2.865L16,9.6L14.908,9h-0.931l-2.163,0.931
			c-0.737,0.221-1.314,0.997-1.314,1.766v1.309H19V12z"/>
		<path fill="#455A64" d="M21.5,13.006c-0.276,0-0.5-0.224-0.5-0.5v-0.809c0-0.533-0.418-1.124-0.895-1.264l-2.578-1.104
			l-0.322,0.178c-0.754,0.415-1.655,0.415-2.411,0l-0.32-0.176l-2.462,1.06C11.43,10.568,11,11.146,11,11.697v0.809
			c0,0.276-0.224,0.5-0.5,0.5s-0.5-0.224-0.5-0.5v-0.809c0-0.995,0.719-1.959,1.671-2.245l2.632-1.137
			c0.14-0.06,0.303-0.053,0.438,0.021l0.535,0.294c0.454,0.25,0.993,0.25,1.447,0l0.536-0.296c0.134-0.075,0.296-0.082,0.438-0.021
			l2.746,1.18C21.291,9.739,22,10.716,22,11.697v0.809C22,12.782,21.776,13.006,21.5,13.006z"/>
		<path fill="#455A64" d="M21.5,13.006c-0.276,0-0.5-0.224-0.5-0.5v-0.809c0-0.533-0.418-1.124-0.895-1.264l-2.816-1.306
			C17.112,9.045,17,8.868,17,8.674V7.488c0-0.157,0.073-0.304,0.198-0.398C17.708,6.704,18,6.124,18,5.5v-1C18,2.95,17.903,2,16,2
			s-2,0.95-2,2.5v1c0,0.625,0.292,1.204,0.802,1.589C14.927,7.184,15,7.331,15,7.488v1.188c0,0.276-0.224,0.5-0.5,0.5
			S14,8.952,14,8.676V7.724c-0.639-0.57-1-1.368-1-2.224v-1C13,3.191,13,1,16,1s3,2.191,3,3.5v1c0,0.855-0.361,1.652-1,2.223v0.632
			L20.457,9.5C21.291,9.739,22,10.716,22,11.697v0.809C22,12.782,21.776,13.006,21.5,13.006z"/>
	</g>
	<g>
		<g>
			<path fill="#FFFFFF" d="M5.5,14.5h20H5.5z"/>
			<path fill="#455A64" d="M25.5,15h-20C5.224,15,5,14.776,5,14.5S5.224,14,5.5,14h20c0.276,0,0.5,0.224,0.5,0.5S25.776,15,25.5,15z
				"/>
		</g>
		<circle fill="#455A64" cx="27.5" cy="14.5" r="0.5"/>
	</g>
</g>
</svg>
