<?xml version="1.0" encoding="utf-8"?>
<!-- Generator: Adobe Illustrator 16.0.0, SVG Export Plug-In . SVG Version: 6.00 Build 0)  -->
<!DOCTYPE svg PUBLIC "-//W3C//DTD SVG 1.1//EN" "http://www.w3.org/Graphics/SVG/1.1/DTD/svg11.dtd">
<svg version="1.1" id="Layer_1" xmlns="http://www.w3.org/2000/svg" xmlns:xlink="http://www.w3.org/1999/xlink" x="0px" y="0px"
	 width="32px" height="32px" viewBox="0 0 32 32" enable-background="new 0 0 32 32" xml:space="preserve">
<g id="explore_x2C__investigate_x2C__examine_x2C__study_x2C__research_x2C__test_tube">
	<g>
		<g id="research_1_">
			<g id="test-tube_2_">
				<g>
					<g>
						<g>
							<path fill="#FFFFFF" d="M5.5,22.501c0-7.167,3.411-9.706,6.999-10.977L12.5,4.001C12.054,4,12.134,3.836,11.847,3.55
								c-0.224-0.225-0.348-0.508-0.347-0.799c-0.001-0.334,0.156-0.646,0.441-0.883c0.278-0.233,0.665-0.367,1.058-0.368H19
								c0.445,0.001,0.865,0.165,1.152,0.452C20.377,2.177,20.5,2.461,20.5,2.751c-0.001,0.689-0.173,1.249-1,1.25h-0.007
								l0.007,7.523c1.257,0.445,7,2.267,7,10.976c0,5-5.389,8-5.389,8H10.886C10.886,30.5,5.5,27.375,5.5,22.501z"/>
						</g>
					</g>
				</g>
				<g>
					<g>
						<path fill="#1DE9B6" d="M5.518,22C5.513,22.169,5.5,22.327,5.5,22.501c0,4.874,5.386,7.999,5.386,7.999h10.226
							c0,0,5.389-3,5.389-8c0-0.175-0.018-0.33-0.022-0.5H5.518z"/>
					</g>
				</g>
			</g>
		</g>
		<g>
			<g>
				<g>
					<g>
						<g>
							<circle fill="#FFFFFF" cx="16" cy="21.001" r="7.5"/>
						</g>
					</g>
				</g>
			</g>
			<g>
				<g>
					<g>
						<g>
							<path fill="#FFF176" d="M23.475,21.511c-0.254-3.636-3.275-6.51-6.975-6.51c-3.865,0-6.999,3.134-6.999,7
								c0,2.118,0.944,4.012,2.431,5.296c1.173,0.759,2.567,1.205,4.068,1.205C19.97,28.502,23.211,25.414,23.475,21.511z"/>
						</g>
					</g>
				</g>
			</g>
			<g>
				<g>
					<g>
						<g>
							<path fill="#455A64" d="M16,29.002c-4.411,0-8-3.59-8-8.001c0-2.513,1.146-4.831,3.145-6.359
								c0.221-0.167,0.533-0.126,0.701,0.093c0.168,0.22,0.126,0.533-0.094,0.701C10.004,16.773,9,18.802,9,21.001
								c0,3.86,3.141,7.001,7,7.001s7-3.141,7-7.001S19.859,14,16,14c-0.888,0-1.753,0.164-2.571,0.486
								c-0.256,0.104-0.548-0.023-0.648-0.281c-0.102-0.256,0.024-0.547,0.281-0.648C13.997,13.188,14.986,13,16,13
								c4.411,0,8,3.59,8,8.001S20.411,29.002,16,29.002z"/>
						</g>
					</g>
				</g>
			</g>
			<g>
				<g>
					<g>
						<g>
							<g>
								<path fill="#455A64" d="M16,25.001c1.402,0,2.5-1.098,2.5-2.5c0-1.135-0.771-1.962-2.291-2.458l-0.113-0.037
									C15.526,19.82,15,19.57,15,19.001c0-0.589,0.411-1,1-1c0.704,0,1.174,0.378,1.178,0.382c0.213,0.178,0.527,0.15,0.705-0.06
									c0.178-0.212,0.15-0.526-0.061-0.704c-0.03-0.025-0.746-0.618-1.822-0.618c-1.141,0-2,0.86-2,2
									c0,1.374,1.344,1.813,1.785,1.955l0.113,0.037c1.078,0.352,1.602,0.846,1.602,1.508c0,0.855-0.645,1.5-1.5,1.5
									c-0.928,0-1.459-0.612-1.6-0.8c-0.166-0.222-0.48-0.265-0.7-0.101c-0.222,0.166-0.267,0.479-0.101,0.7
									C13.811,24.083,14.608,25.001,16,25.001z"/>
							</g>
						</g>
					</g>
				</g>
				<g>
					<g>
						<g>
							<g>
								<path fill="#455A64" d="M16,26.001c0.276,0,0.5-0.224,0.5-0.5v-0.5c0-0.276-0.224-0.5-0.5-0.5s-0.5,0.224-0.5,0.5v0.5
									C15.5,25.777,15.724,26.001,16,26.001z"/>
							</g>
						</g>
					</g>
				</g>
				<g>
					<g>
						<g>
							<g>
								<path fill="#455A64" d="M16,17.501c0.276,0,0.5-0.224,0.5-0.5v-0.5c0-0.276-0.224-0.5-0.5-0.5s-0.5,0.224-0.5,0.5v0.5
									C15.5,17.277,15.724,17.501,16,17.501z"/>
							</g>
						</g>
					</g>
				</g>
			</g>
		</g>
		<g>
			<g>
				<g>
					<g>
						<circle fill="#1DE9B6" cx="17" cy="7.001" r="0.5"/>
					</g>
				</g>
			</g>
		</g>
		<g>
			<g>
				<g>
					<g>
						<circle fill="#1DE9B6" cx="16" cy="10.001" r="1.5"/>
					</g>
				</g>
			</g>
		</g>
		<g>
			<g>
				<path fill="#FFFFFF" d="M20.5,3c0,0.825-0.675,1.5-1.5,1.5h-6c-0.825,0-1.5-0.675-1.5-1.5l0,0c0-0.825,0.675-1.5,1.5-1.5h6
					C19.825,1.5,20.5,2.175,20.5,3L20.5,3z"/>
			</g>
		</g>
		<g>
			<g>
				<path fill="#455A64" d="M17.5,5H13c-1.103,0-2-0.897-2-2s0.897-2,2-2h6c1.103,0,2,0.897,2,2c0,0.805-0.48,1.528-1.224,1.841
					c-0.251,0.107-0.547-0.011-0.655-0.266c-0.107-0.254,0.012-0.547,0.267-0.655C19.76,3.763,20,3.402,20,3c0-0.551-0.448-1-1-1h-6
					c-0.552,0-1,0.449-1,1s0.448,1,1,1h4.5C17.776,4,18,4.224,18,4.5S17.776,5,17.5,5z"/>
			</g>
		</g>
		<g>
			<g>
				<path fill="#455A64" d="M21.393,31H10.607c-0.091,0-0.18-0.024-0.257-0.071C7,28.921,5,25.404,5,21.522
					c0-4.516,2.799-8.576,7-10.214V6.5C12,6.224,12.224,6,12.5,6S13,6.224,13,6.5v5.156c0,0.212-0.134,0.401-0.334,0.472
					C8.679,13.536,6,17.312,6,21.522c0,3.482,1.772,6.641,4.747,8.478h10.505C24.228,28.163,26,25.004,26,21.522
					c0-4.211-2.679-7.986-6.667-9.395C19.134,12.057,19,11.868,19,11.656V4.407c0-0.276,0.224-0.5,0.5-0.5s0.5,0.224,0.5,0.5v6.901
					c4.201,1.638,7,5.698,7,10.214c0,3.881-2,7.398-5.351,9.406C21.572,30.976,21.483,31,21.393,31z"/>
			</g>
		</g>
		<g>
			<g>
				<g>
					<g>
						<g>
							<path fill="#455A64" d="M21.898,9.754c-0.068,0-0.137-0.014-0.203-0.043c-0.252-0.112-0.366-0.408-0.254-0.66l1.219-2.742
								c0.112-0.253,0.407-0.365,0.66-0.254c0.252,0.112,0.366,0.408,0.254,0.66l-1.219,2.742
								C22.272,9.644,22.09,9.754,21.898,9.754z"/>
						</g>
					</g>
				</g>
			</g>
			<g>
				<g>
					<g>
						<g>
							<path fill="#455A64" d="M24.727,11.42c-0.105,0-0.211-0.033-0.301-0.101c-0.221-0.166-0.265-0.479-0.099-0.7l1.805-2.397
								C26.3,8,26.613,7.959,26.832,8.123c0.221,0.166,0.265,0.479,0.099,0.7l-1.805,2.397C25.027,11.352,24.878,11.42,24.727,11.42
								z"/>
						</g>
					</g>
				</g>
			</g>
			<g>
				<g>
					<g>
						<g>
							<path fill="#455A64" d="M27.107,13.68c-0.143,0-0.284-0.061-0.383-0.179c-0.178-0.211-0.15-0.526,0.062-0.704l2.298-1.93
								c0.211-0.179,0.527-0.151,0.704,0.062c0.178,0.211,0.15,0.526-0.062,0.704l-2.298,1.93
								C27.335,13.642,27.221,13.68,27.107,13.68z"/>
						</g>
					</g>
				</g>
			</g>
			<g>
				<g>
					<g>
						<g>
							<path fill="#455A64" d="M4.574,14.073c-0.108,0-0.217-0.034-0.308-0.106l-2.365-1.848c-0.218-0.17-0.257-0.483-0.086-0.701
								c0.169-0.218,0.486-0.258,0.701-0.086l2.365,1.848c0.218,0.17,0.257,0.483,0.086,0.701
								C4.87,14.007,4.723,14.073,4.574,14.073z"/>
						</g>
					</g>
				</g>
			</g>
			<g>
				<g>
					<g>
						<g>
							<path fill="#455A64" d="M6.875,11.731c-0.146,0-0.29-0.063-0.389-0.186L4.598,9.214C4.424,8.999,4.457,8.685,4.672,8.511
								s0.529-0.14,0.703,0.074l1.889,2.332c0.174,0.215,0.141,0.529-0.074,0.703C7.097,11.695,6.985,11.731,6.875,11.731z"/>
						</g>
					</g>
				</g>
			</g>
			<g>
				<g>
					<g>
						<g>
							<path fill="#455A64" d="M9.644,9.968c-0.185,0-0.362-0.104-0.449-0.281L7.879,6.989C7.758,6.741,7.86,6.442,8.109,6.321
								c0.244-0.118,0.546-0.019,0.668,0.23l1.315,2.697c0.121,0.248,0.019,0.547-0.23,0.668C9.792,9.951,9.718,9.968,9.644,9.968z"
								/>
						</g>
					</g>
				</g>
			</g>
		</g>
	</g>
</g>
</svg>
