<?xml version="1.0" encoding="utf-8"?>
<!-- Generator: Adobe Illustrator 16.0.0, SVG Export Plug-In . SVG Version: 6.00 Build 0)  -->
<!DOCTYPE svg PUBLIC "-//W3C//DTD SVG 1.1//EN" "http://www.w3.org/Graphics/SVG/1.1/DTD/svg11.dtd">
<svg version="1.1" id="Layer_1" xmlns="http://www.w3.org/2000/svg" xmlns:xlink="http://www.w3.org/1999/xlink" x="0px" y="0px"
	 width="32px" height="32px" viewBox="0 0 32 32" enable-background="new 0 0 32 32" xml:space="preserve">
<g id="strategy_x2C__strategics_x2C__finance_strategy_x2C__chess_x2C__horse">
	<g id="purse_2_">
		<g>
			<g>
				<path fill="#1AD2A4" d="M1.5,17.5v13h20v-13H1.5z"/>
			</g>
		</g>
		<g>
			<g>
				<path fill="#455A64" d="M12.5,31h-11C1.224,31,1,30.776,1,30.5v-13C1,17.224,1.224,17,1.5,17h14c0.276,0,0.5,0.224,0.5,0.5
					S15.776,18,15.5,18H2v12h10.5c0.276,0,0.5,0.224,0.5,0.5S12.776,31,12.5,31z"/>
			</g>
		</g>
		<g>
			<g>
				<path fill="#65F0CD" d="M19.5,21.5c-1.103,0-2-0.897-2-2V19h-12v0.5c0,1.103-0.897,2-2,2H3v5h0.5c1.103,0,2,0.897,2,2V29h12
					v-0.5c0-1.103,0.897-2,2-2H20v-5H19.5z"/>
			</g>
		</g>
		<g>
			<g>
				<g>
					<g>
						<g>
							<path fill="#455A64" d="M10.5,28c1.402,0,2.5-1.098,2.5-2.5c0-1.135-0.771-1.962-2.291-2.458l-0.113-0.037
								C10.026,22.819,9.5,22.569,9.5,22c0-0.589,0.411-1,1-1c0.704,0,1.174,0.378,1.178,0.382c0.213,0.178,0.527,0.15,0.705-0.06
								c0.178-0.212,0.15-0.526-0.061-0.704C12.292,20.593,11.576,20,10.5,20c-1.141,0-2,0.86-2,2c0,1.374,1.344,1.813,1.785,1.955
								l0.113,0.037C11.477,24.344,12,24.838,12,25.5c0,0.855-0.645,1.5-1.5,1.5c-0.928,0-1.459-0.612-1.6-0.8
								c-0.166-0.222-0.48-0.265-0.7-0.101c-0.222,0.166-0.267,0.479-0.101,0.7C8.311,27.082,9.108,28,10.5,28z"/>
						</g>
					</g>
				</g>
			</g>
			<g>
				<g>
					<g>
						<g>
							<path fill="#455A64" d="M10.5,29c0.276,0,0.5-0.224,0.5-0.5V28c0-0.276-0.224-0.5-0.5-0.5S10,27.724,10,28v0.5
								C10,28.776,10.224,29,10.5,29z"/>
						</g>
					</g>
				</g>
			</g>
			<g>
				<g>
					<g>
						<g>
							<path fill="#455A64" d="M10.5,20.5c0.276,0,0.5-0.224,0.5-0.5v-0.5c0-0.276-0.224-0.5-0.5-0.5S10,19.224,10,19.5V20
								C10,20.276,10.224,20.5,10.5,20.5z"/>
						</g>
					</g>
				</g>
			</g>
		</g>
	</g>
	<g>
		<g>
			<g>
				<path fill="#FFFFFF" d="M26.617,24.544l-7.775,0.011l-2.5-3.567l1.541-4.221c1.996,0,3.615-1.639,3.615-3.66
					c0-0.027-0.014-0.052-0.017-0.078c-0.507,0.337-1.114,0.536-1.769,0.536c-0.786,0-1.497-0.295-2.055-0.765
					c0-0.001-2.063,1.68-2.063,1.68l-1.373-1.373v-2.373l3.842-4.375l-0.73-1.662c0,0,0.777-1.199,4.209-1.199
					c3.488,0,8.734,2.631,8.734,9.17v0.019c0,4.021-1.487,6.724-3.66,8.643V24.544z"/>
			</g>
		</g>
		<g>
			<g>
				<path fill="#FFFFFF" d="M26.617,24.544l-7.775,0.011l-2.5-3.567l1.541-4.221c1.996,0,3.615-1.639,3.615-3.66
					c0-0.027-0.014-0.052-0.017-0.078c-0.507,0.337-1.114,0.536-1.769,0.536c-0.786,0-1.497-0.295-2.055-0.765
					c0-0.001-2.063,1.68-2.063,1.68l-1.373-1.373v-2.373l3.842-4.375l-0.73-1.662c0,0,0.777-1.199,4.209-1.199
					c3.488,0,8.734,2.631,8.734,9.17v0.019c0,4.021-1.487,6.724-3.66,8.643V24.544z"/>
			</g>
		</g>
		<g>
			<g>
				<path fill="#FFFFFF" d="M26.617,24.544l-7.775,0.011l-2.5-3.567l1.541-4.221c1.996,0,3.615-1.639,3.615-3.66
					c0-0.027-0.014-0.052-0.017-0.078c-0.507,0.337-1.114,0.536-1.769,0.536c-0.786,0-1.497-0.295-2.055-0.765
					c0-0.001-2.063,1.68-2.063,1.68l-1.373-1.373v-2.373l3.842-4.375l-0.73-1.662c0,0,0.777-1.199,4.209-1.199
					c3.488,0,8.734,2.631,8.734,9.17v0.019c0,4.021-1.487,6.724-3.66,8.643V24.544z"/>
			</g>
		</g>
		<g>
			<g>
				<path fill="#80D8FF" d="M26.617,24.544V21.33c2.173-1.919,3.66-4.621,3.66-8.643v-0.019c0-1.423-0.26-2.65-0.684-3.716
					c-1.693-2.946-4.868-4.354-7.25-4.354c-1.836,0-3.12,0.52-3.684,0.721l0.479,1.277c0.058,0.167,0.022,0.353-0.092,0.487
					l-3.945,4.634l-0.033,1.738l1.099,0.835c0.609-0.496,1.491-1.493,1.491-1.493c0.134,0.113,1.169,0.853,2.172,0.756
					s2.004-0.229,2.175-0.343c0.147-0.097,0.333-0.109,0.488-0.037c0.158,0.074,0.267,0.225,0.286,0.398
					c0.014,0.046,0.02,0.085,0.02,0.133c0,2.173-1.656,3.961-3.76,4.145l-1.735,4.264l1.538,2.44L26.617,24.544z"/>
			</g>
		</g>
		<g>
			<g>
				<g>
					<path fill="#73C2E6" d="M29.594,8.952c-1.353-2.354-3.647-3.709-5.731-4.166c2.646,1.226,4.612,3.908,4.612,8.201
						c0,6.2-5.767,8.096-7.475,8.612v2.944h5.617V21.33c2.173-1.919,3.66-4.621,3.66-8.643v-0.019
						C30.277,11.246,30.018,10.018,29.594,8.952z"/>
				</g>
			</g>
		</g>
		<g>
			<g>
				<path fill="#455A64" d="M18.842,25.055c-0.157,0-0.313-0.074-0.409-0.213l-2.5-3.567c-0.094-0.134-0.116-0.305-0.061-0.458
					l1.541-4.221c0.072-0.197,0.26-0.329,0.47-0.329c1.46,0,2.688-1.024,3.024-2.4c-1.06,0.363-2.271,0.214-3.221-0.42
					c-0.504,0.451-1.458,1.306-1.458,1.306c-0.176,0.156-0.438,0.171-0.627,0.032l-1.895-1.373c-0.13-0.094-0.207-0.245-0.207-0.405
					v-1.873c0-0.119,0.042-0.234,0.119-0.324l3.88-4.557l-0.638-1.85c-0.079-0.23,0.019-0.484,0.232-0.602
					c0.06-0.033,1.495-0.803,4.449-0.803c3.804,0,9.432,3.175,9.432,9.989c0,4.138-1.891,6.647-3.975,8.721V22.5
					c0,0.276-0.224,0.5-0.5,0.5S26,22.776,26,22.5v-1c0-0.134,0.054-0.263,0.149-0.357c1.987-1.95,3.825-4.287,3.825-8.155
					c0-6.132-5.031-8.989-8.432-8.989c-1.836,0-3.021,0.319-3.584,0.521l0.578,1.677c0.058,0.167,0.022,0.353-0.092,0.487
					L14.5,11.318v1.433l1.361,0.986c1.703-1.525,1.717-1.521,2.001-1.395c0.042,0.019,0.082,0.044,0.118,0.074
					c0.925,0.78,2.254,0.841,3.224,0.195c0.147-0.097,0.333-0.109,0.488-0.037c0.158,0.074,0.267,0.225,0.286,0.398
					c0.014,0.046,0.02,0.085,0.02,0.133c0,2.173-1.656,3.961-3.76,4.145l-1.337,3.663l2.35,3.354
					c0.159,0.226,0.104,0.538-0.122,0.697C19.041,25.025,18.941,25.055,18.842,25.055z"/>
			</g>
		</g>
		<g>
			<g>
				<path fill="#455A64" d="M14,11.634c-0.115,0-0.23-0.039-0.324-0.12c-0.21-0.179-0.235-0.495-0.057-0.705l4.531-5.313
					c0.181-0.211,0.497-0.234,0.705-0.056c0.21,0.179,0.235,0.495,0.057,0.705l-4.531,5.313C14.281,11.574,14.141,11.634,14,11.634z
					"/>
			</g>
		</g>
		<g>
			<g>
				<path fill="#455A64" d="M19.713,14.064c-0.276,0-0.5-0.224-0.5-0.5s0.224-0.5,0.5-0.5c1.49,0,2.702-1.212,2.702-2.703
					c0-0.276,0.224-0.5,0.5-0.5s0.5,0.224,0.5,0.5C23.415,12.403,21.754,14.064,19.713,14.064z"/>
			</g>
		</g>
		<g id="strategy_1_">
			<g>
				<g>
					<g>
						<path fill="#80D8FF" d="M14.5,30.5V28c0-1.379,1.121-2.5,2.5-2.5h0.5V25c0-0.275,0.225-0.5,0.5-0.5h9
							c0.275,0,0.5,0.225,0.5,0.5v0.5H28c1.379,0,2.5,1.121,2.5,2.5v2.5H14.5z"/>
					</g>
				</g>
				<g>
					<g>
						<path fill="#FFFFFF" d="M18,26h0.5c0.276,0,0.5-0.224,0.5-0.5V25h-1v0.5c0,0.276-0.224,0.5-0.5,0.5H17c-1.104,0-2,0.897-2,2v2
							h1v-2C16,26.897,16.896,26,18,26z"/>
					</g>
				</g>
				<g>
					<g>
						<path fill="#73C2E6" d="M30,28c0-1.103-0.897-2-2-2h-1h-6v0.5c-1.1,0-2,0.9-2,2V30h11V28z"/>
					</g>
				</g>
			</g>
			<g>
				<g>
					<g>
						<path fill="#455A64" d="M30.5,31h-16c-0.276,0-0.5-0.224-0.5-0.5V28c0-1.654,1.346-3,3-3c0-0.551,0.449-1,1-1h9
							c0.551,0,1,0.449,1,1c1.654,0,3,1.346,3,3v2.5C31,30.776,30.776,31,30.5,31z M15,30h15v-2c0-1.103-0.896-2-2-2h-0.5
							c-0.276,0-0.5-0.224-0.5-0.5V25h-9v0.5c0,0.276-0.224,0.5-0.5,0.5H17c-1.104,0-2,0.897-2,2V30z"/>
					</g>
				</g>
				<g>
					<g>
						<path fill="#455A64" d="M23.5,29h7v-1h-7c-0.276,0-0.5,0.224-0.5,0.5l0,0C23,28.776,23.224,29,23.5,29z"/>
					</g>
				</g>
			</g>
		</g>
	</g>
	<g>
		<g>
			<path fill="#455A64" d="M19.306,9.15c-0.182,0-0.357-0.1-0.445-0.273c-0.126-0.246-0.028-0.547,0.218-0.672l0.817-0.417
				c0.247-0.124,0.548-0.028,0.673,0.218c0.126,0.246,0.028,0.547-0.218,0.672l-0.817,0.417C19.46,9.133,19.383,9.15,19.306,9.15z"
				/>
		</g>
	</g>
</g>
</svg>
