<?xml version="1.0" encoding="utf-8"?>
<!-- Generator: Adobe Illustrator 16.0.0, SVG Export Plug-In . SVG Version: 6.00 Build 0)  -->
<!DOCTYPE svg PUBLIC "-//W3C//DTD SVG 1.1//EN" "http://www.w3.org/Graphics/SVG/1.1/DTD/svg11.dtd">
<svg version="1.1" xmlns="http://www.w3.org/2000/svg" xmlns:xlink="http://www.w3.org/1999/xlink" x="0px" y="0px" width="32px"
	 height="32px" viewBox="0 0 32 32" enable-background="new 0 0 32 32" xml:space="preserve">
<g id="SEO_performance_speedometer_website_speed">
	<g>
		<g id="monitoring_5_">
			<path fill="#FFAFA9" d="M29.5,12V3.5c0-0.55-0.45-1-1-1h-26c-0.55,0-1,0.45-1,1v23c0,0,0.45,1,1,1h26c0.55,0,1-1,1-1V15V12z"/>
			<path fill="#A9E4FF" d="M2,6V3.5C2,2.947,1.947,3,2.5,3h26C29.053,3,29,2.947,29,3.5V6H2z"/>
			<rect x="2" y="3" fill="#FFFFFF" width="27" height="1"/>
			<circle fill="#455A64" cx="7.5" cy="4.5" r="0.5"/>
			<circle fill="#455A64" cx="5.5" cy="4.5" r="0.5"/>
			<circle fill="#455A64" cx="3.5" cy="4.5" r="0.5"/>
			<rect x="2" y="7" fill="#FFFFFF" width="27" height="1"/>
		</g>
	</g>
	<path fill="#E67C73" d="M16.5,11.5c-2.381,0-4.667,0.722-6.61,2.088c-0.226,0.159-0.28,0.471-0.122,0.696
		c0.005,0.007,0.012,0.01,0.018,0.017c-0.506,0.391-0.975,0.825-1.405,1.297c-0.006-0.006-0.009-0.014-0.016-0.02
		C8.153,15.4,7.838,15.43,7.661,15.642C5.945,17.702,5,20.315,5,23c0,1.565,0.317,3.086,0.925,4.5h21.15
		C27.683,26.086,28,24.565,28,23C28,16.659,22.841,11.5,16.5,11.5z"/>
	<path fill="#455A64" d="M29,7H2C1.724,7,1.5,6.776,1.5,6.5S1.724,6,2,6h27c0.276,0,0.5,0.224,0.5,0.5S29.276,7,29,7z"/>
	<path fill="#455A64" d="M28.5,28H28c-0.276,0-0.5-0.224-0.5-0.5S27.724,27,28,27h0.5c0.276,0,0.5-0.225,0.5-0.5v-23
		C29,3.225,28.776,3,28.5,3h-26C2.224,3,2,3.225,2,3.5v23C2,26.775,2.224,27,2.5,27H3c0.276,0,0.5,0.224,0.5,0.5S3.276,28,3,28H2.5
		C1.673,28,1,27.327,1,26.5v-23C1,2.673,1.673,2,2.5,2h26C29.327,2,30,2.673,30,3.5v23C30,27.327,29.327,28,28.5,28z"/>
	<g>
		<path fill="#FFFFFF" d="M24.359,28.5c1.34-1.822,2.141-4.064,2.141-6.5c0-6.074-4.926-11-11-11c-6.075,0-11,4.926-11,11
			c0,2.436,0.801,4.678,2.141,6.5H24.359z"/>
		<path fill="#80D8FF" d="M16.5,12c-6.074,0-11,4.926-11,11c0,2.008,0.551,3.881,1.494,5.5h17.366c1.34-1.822,2.141-4.064,2.141-6.5
			c0-2.783-1.042-5.316-2.746-7.254C21.816,13.042,19.283,12,16.5,12z"/>
		<path fill="#455A64" d="M24.359,29H6.641c-0.159,0-0.309-0.075-0.403-0.204C4.774,26.805,4,24.455,4,22
			c0-2.685,0.945-5.298,2.661-7.358c0.177-0.212,0.492-0.241,0.704-0.063c0.212,0.177,0.241,0.491,0.064,0.704
			C5.863,17.163,5,19.549,5,22c0,2.157,0.655,4.227,1.897,6h17.206C25.345,26.227,26,24.157,26,22c0-5.79-4.71-10.5-10.5-10.5
			c-2.174,0-4.261,0.659-6.035,1.906c-0.226,0.159-0.537,0.104-0.697-0.122c-0.159-0.226-0.104-0.537,0.122-0.696
			c1.943-1.366,4.229-2.088,6.61-2.088C21.841,10.5,27,15.659,27,22c0,2.455-0.774,4.805-2.238,6.796
			C24.668,28.925,24.519,29,24.359,29z"/>
		<g>
			<path fill="#FFFFFF" d="M22.693,26.5C23.516,25.191,24,23.646,24,21.985c0-4.694-3.806-8.5-8.5-8.5S7,17.291,7,21.985
				c0,1.661,0.484,3.206,1.307,4.515H22.693z"/>
			<path fill="#455A64" d="M22.693,27c-0.091,0-0.183-0.024-0.266-0.076c-0.234-0.147-0.304-0.456-0.157-0.689
				c0.805-1.281,1.23-2.75,1.23-4.249c0-4.411-3.589-8-8-8s-8,3.589-8,8c0,1.5,0.425,2.969,1.23,4.248
				c0.147,0.234,0.077,0.543-0.157,0.689C8.34,27.073,8.031,27,7.884,26.767C6.979,25.327,6.5,23.674,6.5,21.985
				c0-4.963,4.038-9,9-9s9,4.037,9,9c0,1.688-0.479,3.341-1.383,4.78C23.022,26.917,22.859,27,22.693,27z"/>
		</g>
		<g>
			<g>
				<g>
					<path fill="#455A64" d="M19.25,15.505c0.239,0.138,0.321,0.443,0.184,0.683l-0.25,0.434c-0.139,0.239-0.444,0.32-0.684,0.183
						s-0.321-0.443-0.183-0.683l0.249-0.434C18.705,15.448,19.011,15.367,19.25,15.505z"/>
				</g>
			</g>
			<g>
				<g>
					<path fill="#455A64" d="M21.995,18.25c0.138,0.239,0.057,0.545-0.183,0.684l-0.434,0.25c-0.239,0.138-0.545,0.056-0.683-0.184
						s-0.057-0.545,0.183-0.684l0.434-0.25C21.552,17.929,21.857,18.011,21.995,18.25z"/>
				</g>
				<g>
					<path fill="#455A64" d="M10.304,25c0.138,0.239,0.057,0.545-0.183,0.684l-0.433,0.25c-0.24,0.138-0.545,0.056-0.683-0.184
						s-0.057-0.545,0.183-0.684l0.433-0.25C9.86,24.679,10.166,24.761,10.304,25z"/>
				</g>
			</g>
			<g>
				<g>
					<path fill="#455A64" d="M23,22c0,0.276-0.223,0.5-0.5,0.5H22c-0.276,0-0.5-0.224-0.5-0.5s0.224-0.5,0.5-0.5h0.5
						C22.777,21.5,23,21.724,23,22z"/>
				</g>
				<g>
					<path fill="#455A64" d="M9.5,22c0,0.276-0.224,0.5-0.5,0.5H8.5C8.223,22.5,8,22.276,8,22s0.223-0.5,0.5-0.5H9
						C9.276,21.5,9.5,21.724,9.5,22z"/>
				</g>
			</g>
			<g>
				<g>
					<path fill="#455A64" d="M21.995,25.75c-0.138,0.239-0.443,0.321-0.683,0.184l-0.434-0.25c-0.239-0.139-0.32-0.444-0.183-0.684
						s0.443-0.321,0.683-0.183l0.434,0.249C22.052,25.205,22.133,25.511,21.995,25.75z"/>
				</g>
				<g>
					<path fill="#455A64" d="M10.304,19c-0.138,0.239-0.443,0.321-0.683,0.183l-0.433-0.249c-0.24-0.139-0.321-0.444-0.183-0.684
						s0.443-0.321,0.683-0.184l0.433,0.25C10.36,18.455,10.441,18.761,10.304,19z"/>
				</g>
			</g>
			<g>
				<g>
					<path fill="#455A64" d="M12.5,16.804c-0.239,0.138-0.545,0.057-0.684-0.183l-0.25-0.434c-0.138-0.239-0.056-0.545,0.184-0.683
						s0.545-0.057,0.684,0.183l0.25,0.434C12.821,16.36,12.739,16.666,12.5,16.804z"/>
				</g>
			</g>
			<g>
				<g>
					<path fill="#455A64" d="M15.5,16c-0.276,0-0.5-0.224-0.5-0.5V15c0-0.276,0.224-0.5,0.5-0.5S16,14.724,16,15v0.5
						C16,15.776,15.776,16,15.5,16z"/>
				</g>
			</g>
		</g>
		<g>
			<g>
				<g>
					<path fill="#455A64" d="M15.146,22.339c-0.195-0.195-0.195-0.512,0-0.707l3.182-3.182c0.195-0.195,0.501-0.186,0.697,0.011
						c0.195,0.195,0.205,0.501,0.01,0.696l-3.182,3.182C15.658,22.534,15.342,22.534,15.146,22.339z"/>
				</g>
			</g>
			<g>
				<g>
					<g>
						<circle fill="#FF8A80" cx="15.5" cy="21.985" r="1"/>
						<path fill="#455A64" d="M15.5,23.485c-0.4,0-0.777-0.156-1.061-0.439S14,22.386,14,21.985s0.156-0.777,0.439-1.061
							c0.564-0.566,1.555-0.566,2.121,0C16.844,21.208,17,21.586,17,21.986c0,0.401-0.156,0.777-0.44,1.06
							C16.277,23.329,15.9,23.485,15.5,23.485z M15.5,21.485c-0.133,0-0.259,0.052-0.353,0.146C15.052,21.727,15,21.852,15,21.985
							s0.052,0.259,0.146,0.354c0.189,0.189,0.518,0.189,0.707,0C15.948,22.244,16,22.119,16,21.986c0-0.134-0.052-0.26-0.146-0.354
							S15.633,21.485,15.5,21.485z"/>
					</g>
				</g>
			</g>
		</g>
		<g>
			<path fill="#455A64" d="M18,26.5c0,0.275-0.225,0.5-0.5,0.5h-4c-0.275,0-0.5-0.225-0.5-0.5l0,0c0-0.275,0.225-0.5,0.5-0.5h4
				C17.775,26,18,26.225,18,26.5L18,26.5z"/>
		</g>
	</g>
</g>
</svg>
