<svg xmlns="http://www.w3.org/2000/svg" viewBox="0 0 300 300"><defs><style>.cls-1{fill:#fff;stroke:#fff;stroke-miterlimit:10;}.cls-2{fill:#fea605;}</style></defs><title>HLogoLight</title><g id="Vrstva_2" data-name="Vrstva 2"><g id="Vrstva_1-2" data-name="Vrstva 1"><path class="cls-1" d="M150,0A149.4,149.4,0,0,0,91.34,11.91c26.74,21,27.24,57.93,27.23,60.87v49.57h62.86V72.8a27.65,27.65,0,0,1,55.3,0V227.2a27.66,27.66,0,0,1-23.53,27.34c3.87,7.63,10,14.93,19.56,19l1.48.62A150,150,0,0,0,150,0Z"/><path class="cls-2" d="M181.43,227.22V177.65H118.57V227.2a27.65,27.65,0,0,1-55.29,0V72.8A27.65,27.65,0,0,1,86.8,45.46c-3.87-7.63-10-14.93-19.56-19l-1.48-.62a150,150,0,0,0,142.9,262.21C181.92,267.06,181.42,230.16,181.43,227.22Z"/></g></g></svg>